<?xml version="1.0" encoding="UTF-8" standalone="no"?>
<!-- Created with Inkscape (http://www.inkscape.org/) -->

<svg
   width="33.591923mm"
   height="8.0840168mm"
   viewBox="0 0 33.591922 8.0840164"
   version="1.1"
   id="svg5"
   inkscape:version="1.1.2 (0a00cf5339, 2022-02-04)"
   sodipodi:docname="btnwitharrow.svg"
   xmlns:inkscape="http://www.inkscape.org/namespaces/inkscape"
   xmlns:sodipodi="http://sodipodi.sourceforge.net/DTD/sodipodi-0.dtd"
   xmlns="http://www.w3.org/2000/svg"
   xmlns:svg="http://www.w3.org/2000/svg">
  <sodipodi:namedview
     id="namedview7"
     pagecolor="#505050"
     bordercolor="#eeeeee"
     borderopacity="1"
     inkscape:pageshadow="0"
     inkscape:pageopacity="0"
     inkscape:pagecheckerboard="0"
     inkscape:document-units="mm"
     showgrid="false"
     inkscape:zoom="1.6534231"
     inkscape:cx="1.2096117"
     inkscape:cy="78.019957"
     inkscape:window-width="1366"
     inkscape:window-height="703"
     inkscape:window-x="0"
     inkscape:window-y="0"
     inkscape:window-maximized="1"
     inkscape:current-layer="layer1" />
  <defs
     id="defs2" />
  <g
     inkscape:label="Layer 1"
     inkscape:groupmode="layer"
     id="layer1"
     transform="translate(-94.599114,-99.09952)">
    <g
       id="g3876"
       transform="translate(0.07751045,0.30913659)">
      <path
         style="fill:#b3ccde;stroke-width:0.264583"
         d="m 125.07156,106.1696 c 0.26339,-0.29104 0.53842,-0.52917 0.61118,-0.52917 0.0728,0 -0.0832,0.23813 -0.3466,0.52917 -0.26339,0.29104 -0.53842,0.52917 -0.61118,0.52917 -0.0728,0 0.0832,-0.23813 0.3466,-0.52917 z m -27.119791,-1.19062 c -0.64268,-0.65485 -1.108978,-1.19063 -1.036218,-1.19063 0.07276,0 0.658121,0.53578 1.300802,1.19063 0.64268,0.65484 1.108978,1.19062 1.036218,1.19062 -0.07276,0 -0.658121,-0.53578 -1.300802,-1.19062 z m 26.193751,0.29698 c 0,-0.0549 0.20836,-0.26331 0.46302,-0.46303 0.41965,-0.3291 0.429,-0.31974 0.0999,0.0999 -0.34565,0.44073 -0.56292,0.58089 -0.56292,0.36313 z m -27.913542,-4.39803 c 1.01084,-1.018643 1.897422,-1.85208 1.970183,-1.85208 0.07276,0 -0.69476,0.833437 -1.7056,1.85208 -1.01084,1.01865 -1.897423,1.85209 -1.970183,1.85209 -0.07276,0 0.694759,-0.83344 1.7056,-1.85209 z m 28.428462,0.0661 -0.9118,-0.992188 0.99219,0.911798 c 0.92351,0.84868 1.11384,1.07258 0.9118,1.07258 -0.0442,0 -0.4907,-0.44649 -0.99219,-0.99219 z m 1.45701,-0.13229 -1.04589,-1.124482 1.12448,1.045882 c 1.04576,0.97266 1.24606,1.20308 1.04588,1.20308 -0.0432,0 -0.54924,-0.50602 -1.12447,-1.12448 z m -27.901097,-0.33073 c 0.493655,-0.509325 0.957086,-0.926043 1.029846,-0.926043 0.07276,0 -0.271608,0.416718 -0.765263,0.926043 -0.493655,0.50932 -0.957086,0.92604 -1.029847,0.92604 -0.07276,0 0.271609,-0.41672 0.765264,-0.92604 z m 1.25677,-1.646609 c 0.472943,-0.05869 1.246847,-0.05869 1.719797,0 0.47294,0.05869 0.086,0.106713 -0.8599,0.106713 -0.945886,0 -1.332839,-0.04802 -0.859897,-0.106713 z m 22.219097,4.5e-4 c 0.4697,-0.05845 1.30314,-0.05941 1.85209,-0.0021 0.54894,0.05728 0.16465,0.105098 -0.854,0.106272 -1.01864,0.0012 -1.46779,-0.04569 -0.99809,-0.104138 z"
         id="path3892"
         sodipodi:nodetypes="cscsccscscsccscscscscsssscssscscsccsscccccc" />
      <path
         style="fill:#9bb5cd;stroke-width:0.264583"
         d="m 99.076249,106.77061 c 0.545703,-0.0571 1.438671,-0.0571 1.984371,0 0.54571,0.0571 0.0992,0.10379 -0.99218,0.10379 -1.09141,0 -1.537895,-0.0467 -0.992191,-0.10379 z m 22.489581,0 c 0.5457,-0.0571 1.43867,-0.0571 1.98438,0 0.5457,0.0571 0.0992,0.10379 -0.99219,0.10379 -1.09141,0 -1.53789,-0.0467 -0.99219,-0.10379 z M 94.907593,103.5221 c -0.264196,-0.29193 -0.431478,-0.57792 -0.371736,-0.63554 0.05974,-0.0576 0.322538,0.18124 0.583994,0.53079 0.577423,0.77198 0.448951,0.83538 -0.212258,0.10475 z m 29.733347,-4.165191 c -0.32911,-0.419644 -0.31975,-0.429002 0.0999,-0.09989 0.44073,0.345644 0.58089,0.562916 0.36313,0.562916 -0.0549,0 -0.2633,-0.20836 -0.46302,-0.463021 z"
         id="path3890"
         sodipodi:nodetypes="cssccsscccscsssss" />
      <path
         style="fill:#6c8faf;stroke-width:0.264583"
         d="m 97.402577,105.97116 -0.641433,-0.7276 0.727604,0.64143 c 0.400183,0.35279 0.727605,0.68021 0.727605,0.72761 0,0.2075 -0.21426,0.0386 -0.813776,-0.64144 z m 28.065863,-0.46302 c 0.49365,-0.50932 0.95708,-0.92604 1.02984,-0.92604 0.0728,0 -0.27161,0.41672 -0.76526,0.92604 -0.49365,0.50932 -0.95709,0.92604 -1.02985,0.92604 -0.0728,0 0.27161,-0.41672 0.76527,-0.92604 z m -0.79375,-0.52916 c 0.49365,-0.50933 0.95708,-0.92605 1.02984,-0.92605 0.0728,0 -0.27161,0.41672 -0.76526,0.92605 -0.49365,0.50932 -0.95709,0.92604 -1.02985,0.92604 -0.0728,0 0.27161,-0.41672 0.76527,-0.92604 z m 2.75298,-2.58018 -0.50403,-0.59532 0.59532,0.50403 c 0.55944,0.47366 0.71576,0.6866 0.50403,0.6866 -0.0502,0 -0.3181,-0.26789 -0.59532,-0.59531 z m -31.603625,-0.79375 c 0.648762,-0.69123 1.214309,-1.25677 1.256771,-1.25677 0.198672,0 -0.01138,0.23755 -1.179567,1.33397 l -1.256771,1.17957 z m 28.023145,-1.720134 c -0.32911,-0.419644 -0.31975,-0.429003 0.0999,-0.0999 0.44073,0.345644 0.58089,0.562914 0.36313,0.562914 -0.0549,0 -0.2633,-0.20836 -0.46302,-0.463019 z"
         id="path3886"
         sodipodi:nodetypes="cccsccsssccscscccssccscccccscc" />
      <path
         style="fill:#4e7198;stroke-width:0.264583"
         d="m 97.451511,104.74422 c -0.657767,-0.67865 -0.782774,-0.94587 -0.514923,-1.10075 0.194548,-0.1125 0.262332,-0.10398 0.150633,0.0189 -0.111699,0.1229 0.179547,0.61824 0.647215,1.10075 0.467668,0.48251 0.790774,0.87729 0.718013,0.87729 -0.07276,0 -0.523182,-0.40329 -1.000938,-0.89621 z m -2.029928,-1.02202 -0.777105,-0.85989 0.859895,0.7771 c 0.472943,0.42741 0.859896,0.81436 0.859896,0.8599 0,0.20441 -0.218315,0.0244 -0.942686,-0.77711 z m 29.669177,-2.55515 -0.77454,-0.95103 0.89327,0.85142 c 0.4913,0.46828 0.83984,0.89624 0.77454,0.95103 -0.0653,0.0548 -0.46727,-0.32835 -0.89327,-0.85142 z m 0.36864,-0.75259 -1.44617,-1.521352 1.52135,1.446172 c 1.41339,1.34354 1.64256,1.59654 1.44617,1.59654 -0.0413,0 -0.72596,-0.68461 -1.52135,-1.52136 z M 97.745314,99.678588 c 0.395773,-0.416333 0.767035,-0.703751 0.825028,-0.638707 0.05799,0.06504 -0.265821,0.405678 -0.719586,0.756967 l -0.825028,0.638702 z m 0.471039,0.570282 c 0,-0.0549 0.208359,-0.2633 0.463021,-0.463019 0.419643,-0.329108 0.429002,-0.319749 0.09989,0.0999 -0.345643,0.440729 -0.562915,0.580889 -0.562915,0.363129 z m 1.274751,-1.016105 c 0.141097,-0.141097 0.477547,-0.209695 0.747666,-0.152439 0.36375,0.0771 0.29722,0.143635 -0.256541,0.25654 -0.482818,0.09844 -0.65679,0.06157 -0.491125,-0.104101 z"
         id="path3884"
         sodipodi:nodetypes="cccsscccccscscscsccssccscccccsccccsc" />
      <path
         style="fill:#c1373e;stroke-width:0.264583"
         d="m 98.325744,104.80475 c -0.93329,-0.8962 -1.696891,-1.72285 -1.696891,-1.83701 0,-0.5039 3.005329,-3.412723 3.525947,-3.412723 0.4582,0 0.28674,0.274656 -0.954542,1.529023 -0.83219,0.84097 -1.513072,1.64144 -1.513072,1.77882 0,0.13739 0.740701,0.99714 1.646003,1.91056 2.212631,2.23248 1.313931,2.26042 -1.007445,0.0313 z m 23.925096,1.19145 c 0.14707,-0.26843 0.8723,-1.07952 1.61163,-1.80243 l 1.34422,-1.31436 -1.64742,-1.6622 c -1.31439,-1.326177 -1.53676,-1.662193 -1.10003,-1.662193 0.52118,0 3.54512,2.870723 3.5328,3.353793 -0.0102,0.40175 -2.84859,3.20727 -3.43218,3.3925 -0.49989,0.15866 -0.54092,0.11815 -0.30902,-0.30511 z"
         id="path3882" />
      <path
         style="fill:#225d98;stroke-width:0.264583"
         d="m 96.52918,104.78054 -1.739519,-1.91823 1.944562,-1.91823 c 2.309022,-2.277755 3.476107,-2.655748 1.404401,-0.45485 -0.757614,0.80485 -1.357839,1.54899 -1.333833,1.65364 0.02401,0.10465 -0.07987,0.3391 -0.230835,0.521 -0.192085,0.23145 -0.175606,0.44987 0.0549,0.72761 0.181157,0.21828 0.229977,0.39687 0.108489,0.39687 -0.429145,0 2.368099,2.62205 2.91179,2.72942 0.303378,0.0599 0.116889,0.12515 -0.414418,0.14497 -0.879961,0.0328 -1.120972,-0.13485 -2.705534,-1.8822 z m 4.54798,1.73749 c 0.191,-0.0764 0.4192,-0.067 0.50712,0.0209 0.0879,0.0879 -0.0684,0.15045 -0.34727,0.13896 -0.30822,-0.0127 -0.37092,-0.0754 -0.15985,-0.15985 z m 20.0918,0.006 c 0.1819,-0.0734 0.47955,-0.0734 0.66146,0 0.1819,0.0734 0.0331,0.13345 -0.33073,0.13345 -0.36381,0 -0.51263,-0.06 -0.33073,-0.13345 z m 2.05052,-0.0809 c 0.29104,-0.12243 1.05899,-0.76873 1.70656,-1.43623 1.63829,-1.6887 1.63219,-2.63484 -0.0277,-4.29472 -1.02202,-1.022031 -1.42195,-1.236598 -2.6326,-1.412456 l -1.42751,-0.207357 1.59412,-0.03301 1.59412,-0.03301 1.94022,1.953263 1.94023,1.95326 -1.78435,1.8832 c -1.48865,1.57113 -1.92088,1.88042 -2.6083,1.86643 -0.69487,-0.0142 -0.74106,-0.0516 -0.29479,-0.23937 z m -22.42344,-7.327425 c 0.1819,-0.0734 0.47956,-0.0734 0.66146,0 0.1819,0.0734 0.0331,0.133452 -0.33073,0.133452 -0.3638,0 -0.51263,-0.06005 -0.33073,-0.133452 z"
         id="path3880" />
      <path
         style="fill:#5b4b6f;stroke-width:0.264583"
         d="m 99.502435,106.1539 -0.624624,-0.54487 0.725562,0.44167 c 0.399057,0.24291 0.911257,0.37041 1.138217,0.28331 0.23707,-0.091 0.34388,-0.0471 0.25101,0.1032 -0.25549,0.4134 -0.81298,0.3074 -1.490165,-0.28331 z m 22.317575,0.32033 c -0.22058,-0.13995 -0.0611,-0.21644 0.45138,-0.21644 0.43588,0 0.7312,0.0992 0.65625,0.22049 -0.17207,0.27842 -0.66526,0.27661 -1.10763,-0.004 z m 3.19459,-2.30957 c 0.72394,-0.77998 0.94972,-1.21351 0.81494,-1.56476 -0.12887,-0.33583 -0.0909,-0.42678 0.1231,-0.29455 0.54523,0.33697 0.33671,0.82118 -0.81493,1.89232 l -1.12448,1.04589 z m -28.533731,-0.93087 c -0.09857,-0.15948 0.03671,-0.4869 0.300624,-0.7276 0.448032,-0.40863 0.457366,-0.40771 0.14082,0.0138 -0.186459,0.24829 -0.262208,0.57571 -0.168332,0.7276 0.09388,0.1519 0.111154,0.27618 0.03839,0.27618 -0.07276,0 -0.212938,-0.13049 -0.311505,-0.28998 z m 26.883591,-3.266604 c -0.17417,-0.20987 -0.69477,-0.428941 -1.15687,-0.486824 l -0.8402,-0.105243 0.81889,-0.04234 c 0.52358,-0.02707 0.99159,0.148488 1.29778,0.486824 0.26339,0.291037 0.41548,0.529167 0.33799,0.529167 -0.0775,0 -0.28341,-0.17171 -0.45759,-0.381581 z m -23.35909,-0.599299 c 0.32912,-0.06329 0.80537,-0.06088 1.05834,0.0053 0.25296,0.06622 -0.0163,0.118004 -0.5984,0.115067 -0.582082,-0.0029 -0.789053,-0.05712 -0.45994,-0.120406 z"
         id="path3878" />
    </g>
  </g>
</svg>
