<?xml version="1.0" encoding="UTF-8" standalone="no"?>
<!-- Created with Inkscape (http://www.inkscape.org/) -->

<svg
   width="87.201233mm"
   height="14.77493mm"
   viewBox="0 0 87.201233 14.77493"
   version="1.1"
   id="svg5"
   inkscape:version="1.1.2 (0a00cf5339, 2022-02-04)"
   sodipodi:docname="rbbtn.svg"
   xmlns:inkscape="http://www.inkscape.org/namespaces/inkscape"
   xmlns:sodipodi="http://sodipodi.sourceforge.net/DTD/sodipodi-0.dtd"
   xmlns="http://www.w3.org/2000/svg"
   xmlns:svg="http://www.w3.org/2000/svg">
  <sodipodi:namedview
     id="namedview7"
     pagecolor="#505050"
     bordercolor="#eeeeee"
     borderopacity="1"
     inkscape:pageshadow="0"
     inkscape:pageopacity="0"
     inkscape:pagecheckerboard="0"
     inkscape:document-units="mm"
     showgrid="false"
     inkscape:zoom="1.6534231"
     inkscape:cx="129.12605"
     inkscape:cy="1.2096117"
     inkscape:window-width="1366"
     inkscape:window-height="703"
     inkscape:window-x="0"
     inkscape:window-y="0"
     inkscape:window-maximized="1"
     inkscape:current-layer="layer1" />
  <defs
     id="defs2" />
  <g
     inkscape:label="Layer 1"
     inkscape:groupmode="layer"
     id="layer1"
     transform="translate(-60.464188,-118.43595)">
    <g
       id="g2924"
       transform="translate(9.5662884,38.523938)">
      <g
         id="g1637"
         transform="translate(0.88324401,-21.852319)">
        <path
           style="fill:#d2f1f7;stroke-width:0.264583"
           d="m 70.470353,116.38262 c 9.870382,-0.0384 25.943821,-0.0384 35.718747,2e-5 9.77494,0.0384 1.69917,0.0699 -17.946146,0.0699 -19.645314,-1e-5 -27.642984,-0.0315 -17.772601,-0.0699 z m 60.762797,-5.95078 5.94853,-6.01685 -13.81992,-0.0721 -13.81991,-0.0721 13.79932,0.004 c 12.93838,0.003 13.80356,0.0325 13.86725,0.46659 0.0374,0.25466 -0.0694,0.46302 -0.23714,0.46302 -0.16778,0 -2.86592,2.53007 -5.99586,5.62237 l -5.6908,5.62237 z m -77.374241,1.56175 c 1.739765,-1.79549 3.341804,-3.34882 3.560085,-3.45184 0.218281,-0.10302 -1.149219,1.36602 -3.038891,3.26453 -1.889671,1.89851 -3.491709,3.45184 -3.560085,3.45184 -0.06837,0 1.299125,-1.46904 3.038891,-3.26453 z m 4.089252,-3.97916 c 0,-0.0549 0.208359,-0.2633 0.463021,-0.46302 0.419644,-0.3291 0.429002,-0.31975 0.09989,0.0999 -0.345643,0.44073 -0.562915,0.58089 -0.562915,0.36312 z m 25.323547,-1.17754 c 0.260331,-0.26603 1.068641,-1.00445 1.796245,-1.64093 1.260872,-1.10297 1.248852,-1.08028 -0.256301,0.48369 -0.868569,0.90251 -1.676879,1.64093 -1.796244,1.64093 -0.119364,0 -0.004,-0.21766 0.2563,-0.48369 z m -29.027714,-1.2361 c 0.341774,-0.3638 0.680939,-0.66146 0.7537,-0.66146 0.07276,0 -0.147342,0.29766 -0.489117,0.66146 -0.341774,0.3638 -0.680939,0.66146 -0.753699,0.66146 -0.07276,0 0.147342,-0.29766 0.489116,-0.66146 z m 3.175,-3.175 c 0.341774,-0.3638 0.680939,-0.66146 0.7537,-0.66146 0.07276,0 -0.147342,0.29766 -0.489117,0.66146 -0.341774,0.3638 -0.680939,0.66146 -0.753699,0.66146 -0.07276,0 0.147342,-0.29766 0.489116,-0.66146 z"
           id="path1657"
           sodipodi:nodetypes="cccccccccccssccsssssscssscssscssssssssss" />
        <path
           style="fill:#a9d7e5;stroke-width:0.264583"
           d="m 50.473681,116.40581 c 0.181901,-0.0734 0.479558,-0.0734 0.661459,0 0.181901,0.0734 0.03307,0.13345 -0.330729,0.13345 -0.363803,0 -0.512631,-0.0601 -0.33073,-0.13345 z m 1.322917,0 c 0.181901,-0.0734 0.479557,-0.0734 0.661458,0 0.181902,0.0734 0.03307,0.13345 -0.330729,0.13345 -0.363802,0 -0.51263,-0.0601 -0.330729,-0.13345 z m 72.231252,0 c 0.1819,-0.0734 0.47956,-0.0734 0.66146,0 0.1819,0.0734 0.0331,0.13345 -0.33073,0.13345 -0.3638,0 -0.51263,-0.0601 -0.33073,-0.13345 z m -64.319017,-5.57946 c -0.06745,-0.10914 0.223177,-0.19844 0.645843,-0.19844 0.422667,0 0.768485,0.0893 0.768485,0.19844 0,0.10914 -0.29063,0.19844 -0.645844,0.19844 -0.355213,0 -0.701031,-0.0893 -0.768484,-0.19844 z m 3.944881,-0.1437 c 0.09936,-0.26094 0.247303,-0.40779 0.328765,-0.32632 0.08146,0.0815 1.68e-4,0.29495 -0.180653,0.47443 -0.261307,0.25936 -0.291698,0.22897 -0.148112,-0.14811 z m 5.233665,-0.0661 c -0.08617,-0.22456 -0.09755,-0.46741 -0.0253,-0.53966 0.07226,-0.0723 0.194881,0.11147 0.272499,0.40828 0.164876,0.63049 -0.01831,0.72784 -0.2472,0.13138 z m 1.628491,0.1437 c 0.72826,-0.31294 0.98716,-0.31294 0.79375,0 -0.08994,0.14552 -0.424387,0.25622 -0.743219,0.24599 -0.558897,-0.0179 -0.560711,-0.0268 -0.05053,-0.24599 z m 1.93794,-0.44296 c 0.112906,-0.55376 0.179438,-0.62029 0.256543,-0.25654 0.05726,0.27012 -0.01135,0.60657 -0.15244,0.74767 -0.165666,0.16566 -0.202541,-0.008 -0.104103,-0.49113 z m 1.293305,0.5433 c -0.103696,-0.10369 -0.188537,-0.48619 -0.188537,-0.84999 0,-0.59602 0.349237,-0.61393 0.429948,-0.022 0.01818,0.1334 0.04796,0.3616 0.06615,0.50712 0.04347,0.34777 1.008734,0.34236 1.181806,-0.007 0.07397,-0.14916 0.104479,-0.1194 0.06779,0.0661 -0.07358,0.37209 -1.258139,0.60441 -1.557152,0.30539 z m 2.060421,-0.10034 c -0.08994,-0.14552 -0.03743,-0.26458 0.116676,-0.26458 0.15411,0 0.280199,0.11906 0.280199,0.26458 0,0.14552 -0.0525,0.26459 -0.116676,0.26459 -0.06417,0 -0.190261,-0.11907 -0.280199,-0.26459 z m 2.778126,0.0367 c 0,-0.12534 0.297656,-0.17099 0.661458,-0.10145 0.549341,0.10502 0.661458,0.0241 0.661458,-0.47766 0,-0.71122 0.234418,-0.56574 0.38998,0.24204 0.09409,0.48856 -0.01438,0.56497 -0.802047,0.56497 -0.500968,0 -0.910849,-0.10256 -0.910849,-0.2279 z m 2.116666,-0.18459 c 0,-0.22687 0.121005,-0.33771 0.268899,-0.24631 0.147894,0.0914 0.200401,0.27703 0.116676,0.41249 -0.226809,0.36699 -0.385575,0.29856 -0.385575,-0.16618 z m 1.322917,0.17913 c 0,-0.14552 0.119062,-0.33817 0.264583,-0.4281 0.145521,-0.0899 0.264584,-0.0445 0.264584,0.10106 0,0.14552 -0.119063,0.33817 -0.264584,0.4281 -0.145521,0.0899 -0.264583,0.0445 -0.264583,-0.10106 z m 3.950131,-0.26102 c 0.145521,-0.27191 0.183105,-0.57586 0.08352,-0.67545 -0.09959,-0.0996 0.04741,-0.0934 0.32666,0.0138 0.296389,0.11374 0.375629,0.23887 0.190373,0.30062 -0.467672,0.15589 -0.385802,0.53416 0.145669,0.67305 0.281136,0.0735 0.173543,0.13306 -0.273891,0.15169 -0.640977,0.0267 -0.702469,-0.0337 -0.472332,-0.46368 z m 1.767999,0.27767 c -0.07366,-0.11919 0.216966,-0.16521 0.645843,-0.10226 0.428879,0.0629 0.779777,0.16046 0.779777,0.2167 0,0.20161 -1.294516,0.0977 -1.42562,-0.11444 z m 1.815942,-0.0585 c -0.111554,-0.1805 0.08792,-0.21321 0.579696,-0.0951 1.013728,0.24352 1.109676,0.37026 0.280318,0.37026 -0.379465,0 -0.766474,-0.12384 -0.860014,-0.27519 z m 5.844397,-0.067 c 0.09936,-0.26094 0.247303,-0.40779 0.328766,-0.32632 0.08146,0.0815 1.69e-4,0.29495 -0.180652,0.47443 -0.261308,0.25936 -0.291698,0.22897 -0.148114,-0.14811 z m 2.144781,-0.0769 c 0.08844,-0.23049 0.233535,-0.30787 0.322424,-0.17197 0.08889,0.1359 0.340212,0.31508 0.558493,0.39817 0.233257,0.0888 0.10033,0.15969 -0.322426,0.17197 -0.551852,0.016 -0.681866,-0.0767 -0.558491,-0.39817 z m 2.010431,0.2357 c 0.257432,-0.0671 0.614624,-0.0627 0.793754,0.01 0.17913,0.0725 -0.0315,0.12737 -0.468059,0.12197 -0.436563,-0.005 -0.583126,-0.0647 -0.325695,-0.13177 z m 4.275544,-0.23242 c 0.22868,-0.22867 0.41578,-0.54617 0.41578,-0.70555 0,-0.15938 0.0692,-0.22061 0.15372,-0.13606 0.21398,0.21397 -0.37612,1.25739 -0.7111,1.25739 -0.15079,0 -0.0871,-0.1871 0.1416,-0.41578 z m 4.98487,0.23242 c 0.25744,-0.0671 0.61462,-0.0627 0.79375,0.01 0.17913,0.0725 -0.0315,0.12737 -0.46805,0.12197 -0.43656,-0.005 -0.58313,-0.0647 -0.3257,-0.13177 z m 1.51632,-0.0151 c 0,-0.10914 0.34582,-0.19844 0.76849,-0.19844 0.42266,0 0.71329,0.0893 0.64584,0.19844 -0.0674,0.10914 -0.41327,0.19844 -0.76848,0.19844 -0.35522,0 -0.64585,-0.0893 -0.64585,-0.19844 z m 10.84792,0.0944 c 0,-0.0572 0.17859,-0.17252 0.39687,-0.25628 0.21829,-0.0838 0.39688,-0.037 0.39688,0.10399 0,0.14095 -0.17859,0.25628 -0.39688,0.25628 -0.21828,0 -0.39687,-0.0468 -0.39687,-0.10399 z m 2.24896,-0.0896 c 0.29104,-0.0727 0.61664,-0.26726 0.72355,-0.43232 0.12337,-0.19047 0.19587,-0.13095 0.19844,0.16289 0.003,0.33705 -0.19391,0.45467 -0.72355,0.43233 -0.55769,-0.0235 -0.60403,-0.0616 -0.19844,-0.1629 z m -57.926743,-0.78718 c -0.143585,-0.37708 -0.113194,-0.40748 0.148112,-0.14811 0.180821,0.17947 0.262115,0.39297 0.180654,0.47443 -0.08146,0.0815 -0.229407,-0.0654 -0.328766,-0.32632 z m 4.233333,0 c -0.143585,-0.37708 -0.113194,-0.40748 0.148113,-0.14811 0.180821,0.17947 0.262115,0.39297 0.180653,0.47443 -0.08146,0.0815 -0.229406,-0.0654 -0.328766,-0.32632 z m 7.259031,0.0679 c 0,-0.21105 -0.208359,-0.50509 -0.46302,-0.65341 -0.254662,-0.14833 -0.343959,-0.26952 -0.198438,-0.26932 0.403458,5.6e-4 1.190625,0.66494 1.190625,1.0049 0,0.16586 -0.119062,0.30156 -0.264583,0.30156 -0.145521,0 -0.264584,-0.17268 -0.264584,-0.38373 z m 24.077089,0.11915 c 0,-0.14553 0.12609,-0.26459 0.28019,-0.26459 0.15411,0 0.20662,0.11906 0.11668,0.26459 -0.0899,0.14552 -0.21603,0.26458 -0.2802,0.26458 -0.0642,0 -0.11667,-0.11906 -0.11667,-0.26458 z m 13.92723,-0.1323 c 0.0838,-0.21828 0.2732,-0.39687 0.42097,-0.39687 0.15486,0 0.12915,0.16812 -0.0607,0.39687 -0.18116,0.21828 -0.3706,0.39688 -0.42097,0.39688 -0.0504,0 -0.023,-0.1786 0.0607,-0.39688 z m -2.81473,-0.30868 c 0,-0.19402 0.10632,-0.35277 0.23627,-0.35277 0.12995,0 0.29719,0.15875 0.37165,0.35277 0.0745,0.19403 -0.0319,0.35278 -0.23627,0.35278 -0.20441,0 -0.37165,-0.15875 -0.37165,-0.35278 z m 8.87484,0.19467 c -0.0837,-0.13546 -0.0511,-0.30882 0.0726,-0.38523 0.12364,-0.0764 0.2248,0.0344 0.2248,0.2463 0,0.44613 -0.0834,0.48511 -0.29738,0.13893 z m -62.188387,-0.28286 c -0.08994,-0.14552 -0.03743,-0.26458 0.116676,-0.26458 0.154109,0 0.280199,0.11906 0.280199,0.26458 0,0.14552 -0.05251,0.26458 -0.116677,0.26458 -0.06417,0 -0.190262,-0.11906 -0.280198,-0.26458 z m 0.661458,0.1606 c 0,-0.0572 0.184777,-0.17489 0.410617,-0.26155 0.235459,-0.0904 0.341662,-0.046 0.248968,0.10398 -0.155378,0.25141 -0.659585,0.37186 -0.659585,0.15757 z m 6.544028,-0.45802 c 0.179476,-0.18082 0.39297,-0.26211 0.474432,-0.18065 0.08146,0.0815 -0.06538,0.22941 -0.32632,0.32877 -0.377083,0.14358 -0.407475,0.11319 -0.148112,-0.14812 z m 35.718751,0 c 0.17948,-0.18082 0.39297,-0.26211 0.47443,-0.18065 0.0815,0.0815 -0.0654,0.22941 -0.32632,0.32877 -0.37708,0.14358 -0.40747,0.11319 -0.14811,-0.14812 z M 92.013266,104.212 c 3.237839,-0.0421 8.536124,-0.0421 11.773954,0 3.23784,0.0421 0.5887,0.0765 -5.886974,0.0765 -6.475678,0 -9.124818,-0.0344 -5.88698,-0.0765 z"
           id="path1655" />
        <path
           style="fill:#8bb6ca;stroke-width:0.264583"
           d="m 54.243994,111.95083 c 2.397786,-2.4011 4.419142,-4.36563 4.491902,-4.36563 0.07276,0 -1.829533,1.96453 -4.227319,4.36563 -2.397785,2.40109 -4.419142,4.36562 -4.491902,4.36562 -0.07276,0 1.829533,-1.96453 4.227319,-4.36562 z m 13.870824,-1.37346 c 0.03632,-0.24747 0.207438,-0.47723 0.380263,-0.51059 0.172824,-0.0333 0.191445,1.3e-4 0.04138,0.0744 -0.150065,0.0743 -0.210631,0.23571 -0.13459,0.35874 0.07604,0.12304 0.0277,0.29203 -0.107416,0.37554 -0.135121,0.0835 -0.215957,-0.0506 -0.179636,-0.2981 z m 18.794339,0.16523 c -0.09592,-0.1552 -0.117655,-0.33893 -0.0483,-0.40829 0.06935,-0.0694 0.196602,0.0576 0.282774,0.28219 0.178906,0.46622 0.02643,0.54823 -0.234474,0.1261 z m 19.848333,-0.14619 c 0.2356,-0.2356 0.50855,-0.34819 0.60655,-0.25019 0.098,0.098 0.003,0.28894 -0.21104,0.42432 -0.62507,0.3953 -0.86105,0.29141 -0.39551,-0.17413 z m -39.242552,-0.36537 c 0,-0.36381 0.06005,-0.51263 0.133452,-0.33073 0.0734,0.1819 0.0734,0.47955 0,0.66145 -0.0734,0.18191 -0.133452,0.0331 -0.133452,-0.33072 z m 16.097807,0.13229 c -0.265544,-0.31996 -0.259003,-0.39766 0.03375,-0.40093 0.304581,-0.003 0.30525,-0.0407 0.0042,-0.23151 -0.250245,-0.15856 -0.27028,-0.28228 -0.06615,-0.40844 0.161058,-0.0995 0.302753,-0.0847 0.314878,0.0331 0.01212,0.11773 0.05176,0.48195 0.08807,0.80937 0.07811,0.7042 0.05514,0.71636 -0.374706,0.19844 z m 13.280748,-0.26459 c 0.0054,-0.43656 0.06469,-0.58312 0.131773,-0.32569 0.06708,0.25743 0.06267,0.61462 -0.0098,0.79375 -0.07246,0.17913 -0.12735,-0.0315 -0.121957,-0.46806 z m 7.642227,0.24254 c 0.0127,-0.30823 0.0754,-0.37092 0.15985,-0.15985 0.0764,0.19099 0.067,0.4192 -0.0209,0.50711 -0.0879,0.0879 -0.15045,-0.0684 -0.13896,-0.34726 z m -40.634434,-0.11024 c -0.208613,-0.33755 0.06863,-0.79497 0.478636,-0.7897 0.19017,0.002 0.157751,0.10735 -0.08176,0.26458 -0.352778,0.23158 -0.352778,0.28948 0,0.52106 0.239512,0.15723 0.271931,0.26214 0.08176,0.26459 -0.173313,0.002 -0.388699,-0.11501 -0.478636,-0.26053 z m 55.577254,0.0239 c -0.2228,-0.3605 0.133,-1.10388 0.4381,-0.91532 0.16313,0.10082 0.12702,0.25289 -0.0939,0.39535 -0.29765,0.19196 -0.29117,0.27602 0.0379,0.49204 0.23951,0.15723 0.27193,0.26214 0.0818,0.26459 -0.17331,0.002 -0.38205,-0.10427 -0.46388,-0.23666 z m -11.52413,-0.28846 c 0,-0.14552 0.11907,-0.26458 0.26459,-0.26458 0.14552,0 0.26458,0.11906 0.26458,0.26458 0,0.14552 -0.11906,0.26459 -0.26458,0.26459 -0.14552,0 -0.26459,-0.11907 -0.26459,-0.26459 z M 66.414828,109.7019 c -0.238467,-0.15411 -0.271101,-0.2581 -0.08176,-0.26053 0.173313,-0.002 0.388699,0.11501 0.478636,0.26053 0.203016,0.32849 0.111422,0.32849 -0.396876,0 z m 14.71163,0.0441 c -0.07495,-0.12127 0.03185,-0.22049 0.237329,-0.22049 0.205478,0 0.312277,0.0992 0.237328,0.22049 -0.07495,0.12126 -0.181745,0.22048 -0.237328,0.22048 -0.05558,0 -0.162383,-0.0992 -0.237329,-0.22048 z m 18.555315,-0.0769 c 0.179477,-0.18082 0.392967,-0.26212 0.474427,-0.18066 0.0815,0.0815 -0.0654,0.22941 -0.326314,0.32877 -0.377084,0.14358 -0.407474,0.11319 -0.148113,-0.14811 z m 23.821797,-0.0117 c 0.15374,-0.15375 0.43572,-0.22749 0.6266,-0.16386 0.19816,0.066 0.0782,0.18599 -0.27955,0.27955 -0.44009,0.11508 -0.54339,0.0807 -0.34705,-0.11569 z m -37.030018,-0.13617 c 0.190995,-0.0764 0.419198,-0.067 0.507119,0.0209 0.08792,0.0879 -0.06835,0.15045 -0.347265,0.13896 -0.308227,-0.0127 -0.37092,-0.0754 -0.159854,-0.15985 z m 2.116667,0 c 0.190995,-0.0764 0.419198,-0.067 0.507119,0.0209 0.08792,0.0879 -0.06835,0.15045 -0.347265,0.13896 -0.308227,-0.0127 -0.37092,-0.0754 -0.159854,-0.15985 z m 9.525001,0 c 0.190994,-0.0764 0.419197,-0.067 0.507118,0.0209 0.08792,0.0879 -0.06835,0.15045 -0.347265,0.13896 -0.308227,-0.0127 -0.37092,-0.0754 -0.159853,-0.15985 z m 11.1125,0 c 0.19099,-0.0764 0.4192,-0.067 0.50712,0.0209 0.0879,0.0879 -0.0684,0.15045 -0.34727,0.13896 -0.30822,-0.0127 -0.37092,-0.0754 -0.15985,-0.15985 z m -44.183811,-2.13417 c 3.393339,-0.0419 8.870213,-0.0418 12.170835,10e-5 3.300619,0.042 0.524251,0.0763 -6.169708,0.0762 -6.693958,-5e-5 -9.394465,-0.0344 -6.001127,-0.0763 z"
           id="path1653" />
        <path
           style="fill:#6aaccd;stroke-width:0.264583"
           d="m 113.89864,110.27741 c 0.006,-0.49469 -0.11061,-0.68128 -0.38798,-0.61964 -0.21828,0.0485 -0.30515,-0.004 -0.19305,-0.11563 0.11211,-0.11211 0.41573,-0.21944 0.67472,-0.23852 0.37185,-0.0274 0.44778,0.12283 0.36098,0.71418 -0.1441,0.98183 -0.46605,1.16566 -0.45467,0.25961 z m 5.63618,0.43822 c 0.15374,-0.15375 0.43572,-0.22748 0.6266,-0.16386 0.19816,0.0661 0.0782,0.18599 -0.27955,0.27955 -0.44009,0.11509 -0.54339,0.0806 -0.34705,-0.11569 z m -55.286268,-0.13617 c 0.190996,-0.0764 0.419199,-0.067 0.507118,0.0209 0.08792,0.0879 -0.06835,0.15045 -0.347266,0.13896 -0.308224,-0.0127 -0.370919,-0.0754 -0.159852,-0.15985 z m 38.811068,-0.0838 c -0.0899,-0.14552 -0.0374,-0.26458 0.11668,-0.26458 0.15411,0 0.2802,0.11906 0.2802,0.26458 0,0.14552 -0.0525,0.26458 -0.11668,0.26458 -0.0642,0 -0.19026,-0.11906 -0.2802,-0.26458 z M 62.466966,110.0767 c 0.01269,-0.30823 0.07539,-0.37092 0.159852,-0.15986 0.07643,0.191 0.06703,0.4192 -0.02089,0.50712 -0.08792,0.0879 -0.150453,-0.0683 -0.138964,-0.34726 z m 40.460364,-0.21014 c 0,-0.055 0.20836,-0.2633 0.46302,-0.46302 0.41964,-0.32911 0.429,-0.31975 0.0999,0.0999 -0.34565,0.44073 -0.56292,0.58089 -0.56292,0.36313 z m -40.613544,-0.42927 -0.79375,-0.20198 0.711989,-0.0313 c 0.391594,-0.0172 0.785574,0.0877 0.875511,0.23328 0.08994,0.14552 0.126729,0.25049 0.08176,0.23327 -0.04497,-0.0172 -0.438949,-0.12219 -0.87551,-0.23327 z m 10.583334,0 c -0.08994,-0.14553 -0.03743,-0.26459 0.116676,-0.26459 0.154109,0 0.280199,0.11906 0.280199,0.26459 0,0.14552 -0.0525,0.26458 -0.116676,0.26458 -0.06417,0 -0.190262,-0.11906 -0.280199,-0.26458 z m 13.49375,0 -0.79375,-0.20198 0.859896,-0.0313 c 0.472943,-0.0172 0.859896,0.0877 0.859896,0.23328 0,0.14552 -0.02977,0.25049 -0.06615,0.23327 -0.03638,-0.0172 -0.423333,-0.12219 -0.859896,-0.23327 z m 7.805209,0 -0.661459,-0.21184 0.727605,-0.0264 c 0.400182,-0.0145 0.727604,0.0927 0.727604,0.23821 0,0.14552 -0.02977,0.25271 -0.06615,0.23821 -0.03638,-0.0145 -0.363802,-0.1217 -0.727604,-0.23821 z m 3.836458,0 -0.79375,-0.20198 0.711989,-0.0313 c 0.391594,-0.0172 0.785574,0.0877 0.875511,0.23328 0.08994,0.14552 0.12673,0.25049 0.08176,0.23327 -0.04497,-0.0172 -0.438949,-0.12219 -0.875512,-0.23327 z m 6.305903,-0.12066 c 0,-0.21188 0.10116,-0.32271 0.2248,-0.2463 0.12364,0.0764 0.15631,0.24977 0.0726,0.38524 -0.21395,0.34617 -0.29738,0.30719 -0.29738,-0.13894 z m 4.10631,0.0536 c 0.13331,-0.13331 0.524,-0.19808 0.86821,-0.14393 0.52961,0.0833 0.49235,0.12057 -0.24238,0.24238 -0.52579,0.0872 -0.77261,0.0483 -0.62583,-0.0984 z m 9.43154,0.067 -0.79375,-0.20198 0.71199,-0.0313 c 0.39159,-0.0172 0.78557,0.0877 0.87551,0.23328 0.0899,0.14552 0.12673,0.25049 0.0818,0.23327 -0.045,-0.0172 -0.43895,-0.12219 -0.87551,-0.23327 z m 5.82083,0 -0.79375,-0.20198 0.71199,-0.0313 c 0.39159,-0.0172 0.78557,0.0877 0.87551,0.23328 0.0899,0.14552 0.12673,0.25049 0.0818,0.23327 -0.045,-0.0172 -0.43895,-0.12219 -0.87551,-0.23327 z m -59.856944,-0.18336 c 0.257431,-0.0671 0.614618,-0.0627 0.79375,0.01 0.179131,0.0725 -0.03149,0.12737 -0.468057,0.12198 -0.436562,-0.005 -0.583124,-0.0647 -0.325693,-0.13178 z m 4.812731,-0.0988 c -0.271479,-0.43926 -0.02781,-0.50018 0.35204,-0.088 0.187638,0.2036 0.224431,0.37019 0.08176,0.37019 -0.14267,0 -0.337881,-0.12699 -0.4338,-0.28219 z m 1.681062,0.10144 c 0.190996,-0.0764 0.419197,-0.067 0.507118,0.0209 0.08792,0.0879 -0.06835,0.15046 -0.347266,0.13897 -0.308224,-0.0127 -0.370919,-0.0754 -0.159852,-0.15985 z m 1.5875,0 c 0.190994,-0.0764 0.419198,-0.067 0.507119,0.0209 0.08792,0.0879 -0.06835,0.15046 -0.347266,0.13897 -0.308226,-0.0127 -0.370919,-0.0754 -0.159853,-0.15985 z m 2.10013,0.006 c 0.181901,-0.0734 0.479557,-0.0734 0.661458,0 0.181901,0.0734 0.03307,0.13345 -0.330729,0.13345 -0.363802,0 -0.51263,-0.0601 -0.330729,-0.13345 z m 5.572787,-0.006 c 0.190994,-0.0764 0.419197,-0.067 0.507118,0.0209 0.08792,0.0879 -0.06835,0.15046 -0.347265,0.13897 -0.308227,-0.0127 -0.37092,-0.0754 -0.159853,-0.15985 z m 2.116666,0 c 0.190995,-0.0764 0.419198,-0.067 0.507119,0.0209 0.08792,0.0879 -0.06835,0.15046 -0.347265,0.13897 -0.308227,-0.0127 -0.37092,-0.0754 -0.159854,-0.15985 z m 6.470791,-0.003 c 0.257431,-0.0671 0.614619,-0.0627 0.79375,0.01 0.179131,0.0725 -0.03149,0.12736 -0.468056,0.12197 -0.436563,-0.005 -0.583126,-0.0647 -0.325694,-0.13178 z m 1.995876,0.003 c 0.190995,-0.0764 0.419198,-0.067 0.507119,0.0209 0.08792,0.0879 -0.06835,0.15046 -0.347265,0.13897 -0.308227,-0.0127 -0.37092,-0.0754 -0.159854,-0.15985 z m 9.381207,-0.003 c 0.257432,-0.0671 0.614624,-0.0627 0.793754,0.01 0.17913,0.0725 -0.0315,0.12736 -0.468059,0.12197 -0.436563,-0.005 -0.583126,-0.0647 -0.325695,-0.13178 z m 7.271004,0.008 c 0.1819,-0.0734 0.47956,-0.0734 0.66146,0 0.1819,0.0734 0.0331,0.13345 -0.33073,0.13345 -0.3638,0 -0.51263,-0.0601 -0.33073,-0.13345 z m 3.98529,-0.006 c 0.19099,-0.0764 0.4192,-0.067 0.50712,0.0209 0.0879,0.0879 -0.0683,0.15045 -0.34727,0.13896 -0.30822,-0.0127 -0.37092,-0.0754 -0.15985,-0.15985 z"
           id="path1651" />
        <path
           style="fill:#e66b6b;stroke-width:0.264583"
           d="m 55.963786,104.14562 2.370217,-2.38125 h 14.226871 c 7.82478,0 14.226871,0.0919 14.226871,0.20428 0,0.11235 -0.984753,1.18391 -2.18834,2.38125 l -2.188339,2.17697 H 68.002318 53.593569 Z m 28.575001,0 2.104252,-2.11667 H 72.48783 58.332622 l -2.104253,2.11667 -2.104252,2.11667 h 14.155208 14.155209 z"
           id="path1649"
           sodipodi:nodetypes="ccsssccccccccccccc" />
        <path
           style="fill:#598fad;stroke-width:0.264583"
           d="m 130.97316,110.36333 c 3.2718,-3.27422 6.00825,-5.95313 6.08101,-5.95313 0.0728,0 -2.54463,2.67891 -5.81642,5.95313 -3.2718,3.27422 -6.00825,5.95312 -6.08101,5.95312 -0.0728,0 2.54463,-2.6789 5.81642,-5.95312 z m -73.124218,0.71497 c -0.07175,-0.11609 -0.03413,-0.36693 0.0836,-0.55742 0.150311,-0.2432 0.267945,-0.25914 0.395032,-0.0535 0.09954,0.16106 0.04786,0.29283 -0.114834,0.29283 -0.162697,0 -0.222228,0.11906 -0.132292,0.26459 0.08994,0.14552 0.103991,0.26458 0.03123,0.26458 -0.07276,0 -0.190993,-0.095 -0.26274,-0.21107 z m 5.536332,-0.11966 c -0.25123,-0.8104 -0.313534,-1.75753 -0.107225,-1.63002 0.124499,0.0769 0.226362,0.49708 0.226362,0.93365 0,0.53261 0.100496,0.73164 0.305464,0.60496 0.189256,-0.11697 0.233643,-0.0726 0.116677,0.11668 -0.244,0.39479 -0.413507,0.38688 -0.541278,-0.0253 z m 2.715361,0.14999 c 0.190996,-0.0764 0.419199,-0.067 0.507118,0.0209 0.08792,0.0879 -0.06835,0.15045 -0.347265,0.13896 -0.308225,-0.0127 -0.37092,-0.0754 -0.159853,-0.15985 z m 10.31875,0 c 0.190995,-0.0764 0.419198,-0.067 0.507119,0.0209 0.08792,0.0879 -0.06835,0.15045 -0.347265,0.13896 -0.308227,-0.0127 -0.37092,-0.0754 -0.159854,-0.15985 z m 12.554348,-0.15951 c 0.03543,-0.18075 -0.151117,-0.28455 -0.426601,-0.23737 -0.293873,0.0503 -0.419836,-0.029 -0.315116,-0.19844 0.239011,-0.38672 0.638595,-0.35387 1.08137,0.0889 0.318514,0.31852 0.316283,0.39224 -0.01572,0.51965 -0.22094,0.0848 -0.359891,0.0107 -0.323929,-0.17274 z m 3.320653,0.15951 c 0.190995,-0.0764 0.419198,-0.067 0.507119,0.0209 0.08792,0.0879 -0.06835,0.15045 -0.347266,0.13896 -0.308226,-0.0127 -0.370919,-0.0754 -0.159853,-0.15985 z m 11.027154,-0.0882 c -0.0914,-0.14789 -0.29542,-0.18903 -0.45337,-0.0914 -0.17554,0.10849 -0.21071,0.0537 -0.0905,-0.14083 0.15064,-0.24373 0.28419,-0.24572 0.57005,-0.008 0.37444,0.31076 0.47458,0.50962 0.25664,0.50962 -0.0642,0 -0.19146,-0.121 -0.28286,-0.2689 z m 5.045,0.029 c -0.0816,-0.13195 0.09,-0.17759 0.38126,-0.10143 0.6178,0.16156 0.69589,0.34134 0.14827,0.34134 -0.20969,0 -0.44798,-0.10796 -0.52953,-0.23991 z m 5.53953,-0.29088 c -0.2642,-0.29193 -0.43148,-0.57793 -0.37174,-0.63554 0.0598,-0.0576 0.32254,0.18123 0.584,0.53078 0.57742,0.77198 0.44895,0.83539 -0.21226,0.10476 z m 1.46924,0.0251 c -0.18487,-0.34542 -0.18933,-0.57568 -0.0133,-0.68448 0.14592,-0.0902 0.28098,0.11095 0.30013,0.44696 0.0243,0.42659 0.0936,0.33152 0.22976,-0.31511 l 0.19493,-0.92605 0.0348,0.84428 c 0.0418,1.01408 -0.36025,1.35585 -0.74636,0.6344 z m -53.406819,-0.42034 c 0.0054,-0.43657 0.06469,-0.58313 0.131774,-0.3257 0.06708,0.25743 0.06267,0.61462 -0.0098,0.79375 -0.07248,0.17913 -0.127363,-0.0315 -0.121971,-0.46805 z m 5.193653,-0.0461 c 0.112906,-0.55376 0.179438,-0.62029 0.256541,-0.25654 0.05726,0.27012 -0.01134,0.60657 -0.152439,0.74767 -0.165666,0.16566 -0.202542,-0.008 -0.104102,-0.49113 z m 8.146147,0.39455 c 0.07641,-0.12364 0.24977,-0.1563 0.385236,-0.0726 0.346176,0.21395 0.307198,0.29738 -0.138935,0.29738 -0.211881,0 -0.322715,-0.10116 -0.246301,-0.2248 z m 5.108528,-0.54666 c -0.07875,-0.56878 -0.03833,-0.89293 0.09477,-0.75984 0.127661,0.12766 0.189465,0.57404 0.137345,0.99195 -0.08724,0.69946 -0.105682,0.68101 -0.232111,-0.23211 z m 10.766473,0.54666 c 0.07641,-0.12364 0.249769,-0.1563 0.385236,-0.0726 0.346176,0.21395 0.307197,0.29738 -0.138935,0.29738 -0.211881,0 -0.322715,-0.10116 -0.246301,-0.2248 z m 2.197542,0.24685 c -0.136628,-0.42044 -0.07953,-1.52135 0.0789,-1.52135 0.113945,0 0.207174,0.35718 0.207174,0.79375 0,0.43656 -0.05953,0.79375 -0.132292,0.79375 -0.07276,0 -0.141964,-0.0298 -0.153786,-0.0661 z m 0.602242,-0.59531 c 0.0054,-0.43657 0.06469,-0.58313 0.131773,-0.3257 0.06708,0.25743 0.06267,0.61462 -0.0098,0.79375 -0.07246,0.17913 -0.127349,-0.0315 -0.121957,-0.46805 z m 1.068136,-0.13229 c 0,-0.50933 0.05445,-0.71769 0.121002,-0.46303 0.06655,0.25467 0.06655,0.67138 0,0.92605 -0.06655,0.25466 -0.121002,0.0463 -0.121002,-0.46302 z m 1.052663,0.37018 c -0.187637,-0.2036 -0.22443,-0.37018 -0.08176,-0.37018 0.274753,0 0.672496,0.50329 0.515561,0.65237 -0.05095,0.0484 -0.246163,-0.0786 -0.433803,-0.28219 z m 0.870329,-0.47721 c 0,-0.49543 0.0893,-0.84559 0.198437,-0.77814 0.109141,0.0675 0.198438,0.47281 0.198438,0.90078 0,0.42797 -0.0893,0.77814 -0.198438,0.77814 -0.10914,0 -0.198437,-0.40535 -0.198437,-0.90078 z m 8.048866,0.0411 c -0.0787,-0.56878 -0.0383,-0.89293 0.0948,-0.75984 0.12766,0.12766 0.18946,0.57404 0.13734,0.99195 -0.0872,0.69946 -0.10568,0.68101 -0.23211,-0.23211 z m 4.63999,0.57703 c -0.0961,-0.15544 -0.34741,-0.21633 -0.55853,-0.13532 -0.21435,0.0823 -0.31247,0.0318 -0.2222,-0.11425 0.23082,-0.37348 0.63551,-0.32343 1.09426,0.13532 0.21828,0.21828 0.27633,0.39688 0.129,0.39688 -0.14732,0 -0.34647,-0.12718 -0.44253,-0.28263 z m 2.14482,-0.0595 c 0.0994,-0.26094 0.2473,-0.40779 0.32877,-0.32632 0.0815,0.0815 1.7e-4,0.29495 -0.18066,0.47443 -0.2613,0.25936 -0.29169,0.22897 -0.14811,-0.14811 z m 5.72311,-0.31932 c 0.005,-0.43657 0.0647,-0.58313 0.13178,-0.3257 0.0671,0.25743 0.0627,0.61462 -0.01,0.79375 -0.0725,0.17913 -0.12735,-0.0315 -0.12196,-0.46805 z m 5.25949,0.26458 c -0.0329,-0.29104 -0.10206,-0.75309 -0.1536,-1.02677 -0.063,-0.33465 -0.006,-0.41019 0.17322,-0.23067 0.14681,0.14682 0.21593,0.60886 0.1536,1.02677 -0.0746,0.4999 -0.13382,0.57881 -0.17322,0.23067 z m -62.328777,-0.13229 c 0.727362,-0.31256 1.145107,-0.31256 0.661458,0 -0.218281,0.14106 -0.575469,0.24993 -0.79375,0.24193 -0.261688,-0.01 -0.216625,-0.092 0.132292,-0.24193 z m 8.894233,-0.30242 c -0.01867,-0.42531 0.139469,-0.7646 0.403607,-0.86596 0.327293,-0.12559 0.366903,-0.0837 0.160763,0.17013 -0.150444,0.18524 -0.332067,0.57492 -0.403606,0.86596 -0.10261,0.41744 -0.136551,0.38152 -0.160764,-0.17013 z m 4.731809,0.25832 c 0,-0.12127 0.112035,-0.22048 0.248967,-0.22048 0.136933,0 0.31029,0.0992 0.385236,0.22048 0.07495,0.12127 -0.03709,0.22049 -0.248967,0.22049 -0.211879,0 -0.385236,-0.0992 -0.385236,-0.22049 z m 7.714692,-0.22048 c 0,-0.36381 0.06006,-0.51263 0.133453,-0.33073 0.0734,0.1819 0.0734,0.47955 0,0.66145 -0.0734,0.18191 -0.133453,0.0331 -0.133453,-0.33072 z m 4.456141,0.26458 c 0,-0.14552 0.119063,-0.26458 0.264584,-0.26458 0.145521,0 0.264583,0.11906 0.264583,0.26458 0,0.14552 -0.119062,0.26458 -0.264583,0.26458 -0.145521,0 -0.264584,-0.11906 -0.264584,-0.26458 z m 3.63305,-0.24338 c -0.115086,-0.44009 -0.08065,-0.54339 0.115686,-0.34705 0.15375,0.15375 0.227486,0.43572 0.163859,0.6266 -0.06605,0.19816 -0.185986,0.0782 -0.279545,-0.27955 z m 8.304313,0.26261 c -0.245422,-0.15168 -0.176916,-0.25316 0.24547,-0.36361 0.434242,-0.11356 0.538702,-0.27715 0.403564,-0.63203 -0.139303,-0.36581 -0.108969,-0.40602 0.128548,-0.17037 0.42147,0.41816 -0.281655,1.47251 -0.777582,1.16601 z m 1.556388,-0.0192 c 0,-0.14552 0.12609,-0.26458 0.280201,-0.26458 0.15411,0 0.20661,0.11906 0.11667,0.26458 -0.0899,0.14552 -0.216023,0.26458 -0.280195,0.26458 -0.06417,0 -0.116676,-0.11906 -0.116676,-0.26458 z m 10.753351,-0.33304 c -0.12737,-0.48707 -0.11081,-0.48914 0.37755,-0.0472 0.61094,0.55289 0.61183,0.55661 0.13322,0.55661 -0.20765,0 -0.4375,-0.22924 -0.51077,-0.50943 z m 10.08625,-0.0757 c 0.0691,-0.36155 0.21331,-0.71153 0.32044,-0.77774 0.10712,-0.0662 0.13822,0.17544 0.0691,0.53699 -0.0691,0.36155 -0.21331,0.71153 -0.32044,0.77773 -0.10712,0.0662 -0.13822,-0.17543 -0.0691,-0.53698 z m 3.10519,0.40879 c -0.0899,-0.14552 -0.0374,-0.26458 0.11668,-0.26458 0.15411,0 0.2802,0.11906 0.2802,0.26458 0,0.14552 -0.0525,0.26458 -0.11668,0.26458 -0.0642,0 -0.19026,-0.11906 -0.2802,-0.26458 z m -64.558334,-0.26458 c -0.08994,-0.14553 -0.03743,-0.26459 0.116677,-0.26459 0.154109,0 0.280198,0.11906 0.280198,0.26459 0,0.14552 -0.0525,0.26458 -0.116677,0.26458 -0.06417,0 -0.190261,-0.11906 -0.280198,-0.26458 z m 23.498816,-0.19844 c -0.09063,-0.25466 -0.200718,-0.53248 -0.244639,-0.61736 -0.04392,-0.0849 0.06373,-0.15434 0.239234,-0.15434 0.175498,0 0.31909,0.27781 0.31909,0.61736 0,0.73651 -0.09062,0.7811 -0.313685,0.15434 z m 9.198116,0.0441 c 0.0127,-0.30823 0.07539,-0.37092 0.15985,-0.15986 0.07643,0.191 0.06703,0.4192 -0.02088,0.50712 -0.08792,0.0879 -0.150453,-0.0683 -0.138965,-0.34726 z m 9.789582,0 c 0.0127,-0.30823 0.0754,-0.37092 0.15985,-0.15986 0.0764,0.191 0.067,0.4192 -0.0209,0.50712 -0.0879,0.0879 -0.15046,-0.0683 -0.13897,-0.34726 z m 17.1306,-0.19646 c -0.0984,-0.48281 -0.0616,-0.65679 0.1041,-0.49112 0.1411,0.1411 0.20969,0.47755 0.15244,0.74767 -0.0771,0.36375 -0.14364,0.29722 -0.25654,-0.25655 z m -53.663989,0.16271 c 0,-0.15196 0.208359,-0.43969 0.463021,-0.63941 0.428296,-0.3359 0.433911,-0.32344 0.07487,0.16604 -0.213484,0.29104 -0.421844,0.57877 -0.463021,0.63941 -0.04118,0.0606 -0.07487,-0.0141 -0.07487,-0.16604 z m 2.998611,-0.19715 c 0,-0.21188 0.101161,-0.32272 0.224802,-0.2463 0.123641,0.0764 0.156302,0.24977 0.07258,0.38523 -0.213949,0.34618 -0.297382,0.3072 -0.297382,-0.13893 z m 34.986108,-0.0664 c -0.14358,-0.37709 -0.11319,-0.40748 0.14811,-0.14812 0.18083,0.17948 0.26212,0.39297 0.18066,0.47443 -0.0815,0.0815 -0.22941,-0.0654 -0.32877,-0.32631 z m 0.66534,0.0327 c 0.0127,-0.30822 0.0754,-0.37092 0.15985,-0.15985 0.0764,0.191 0.067,0.4192 -0.0209,0.50712 -0.0879,0.0879 -0.15045,-0.0683 -0.13896,-0.34727 z m 7.88286,-0.30868 c -0.32911,-0.41964 -0.31975,-0.429 0.0999,-0.0999 0.25466,0.19972 0.46302,0.40807 0.46302,0.46302 0,0.21776 -0.21728,0.0776 -0.56292,-0.36313 z m -52.089169,-0.0661 c 0.218281,-0.14107 0.515937,-0.25648 0.661458,-0.25648 0.145521,0 0.08599,0.11541 -0.132291,0.25648 -0.218282,0.14106 -0.515938,0.25648 -0.661459,0.25648 -0.145521,0 -0.08599,-0.11542 0.132292,-0.25648 z m 48.313719,0.0441 c -0.075,-0.12126 0.0319,-0.22048 0.23732,-0.22048 0.20548,0 0.31228,0.0992 0.23733,0.22048 -0.0749,0.12127 -0.18174,0.22049 -0.23733,0.22049 -0.0556,0 -0.16238,-0.0992 -0.23732,-0.22049 z M 68.002328,108.9082 c 0,-0.14552 0.126089,-0.26458 0.280198,-0.26458 0.154109,0 0.206614,0.11906 0.116677,0.26458 -0.08994,0.14552 -0.216026,0.26458 -0.280198,0.26458 -0.06417,0 -0.116677,-0.11906 -0.116677,-0.26458 z m 35.718752,-0.008 c 0,-0.14095 0.17859,-0.25627 0.39687,-0.25627 0.21829,0 0.39688,0.0468 0.39688,0.10398 0,0.0572 -0.17859,0.17252 -0.39688,0.25628 -0.21828,0.0838 -0.39687,0.037 -0.39687,-0.10399 z m -19.182293,-2.9025 c 0.864015,-0.87312 1.630465,-1.5875 1.703226,-1.5875 0.07276,0 -0.574627,0.71438 -1.438643,1.5875 -0.864015,0.87313 -1.630466,1.5875 -1.703226,1.5875 -0.07276,0 0.574627,-0.71437 1.438643,-1.5875 z"
           id="path1647"
           sodipodi:nodetypes="ssssscssscsccccssccccsscccssccscsscsscssccccccsccccscscsscssccsccsscsscsscccsccsssssccscccssscccscccsssssssssscssscsccccccssccssccccccccccccsccssssssscsssssssssssssssssssssscssccscccscsccssscsssssscssssscsscccccccscssscssccscsscccccccsscccscsccscscsssssssscssssss" />
        <path
           style="fill:#fa2322;stroke-width:0.264583"
           d="m 56.228369,104.14562 2.104253,-2.11667 H 72.48783 86.643039 l -2.104252,2.11667 -2.104253,2.11667 H 68.279325 54.124117 Z"
           id="path1645"
           sodipodi:nodetypes="ccccccccc" />
        <path
           style="fill:#005693;stroke-width:0.264583"
           d="m 51.333577,115.97075 c 0,-0.24641 2.360706,-2.56471 2.611625,-2.56471 0.164336,0 0.298792,-0.11496 0.298792,-0.25547 0,-0.54071 1.561245,-1.85467 2.00252,-1.68534 0.354756,0.13614 0.404456,0.0574 0.257032,-0.40707 -0.129014,-0.40648 -0.07963,-0.55443 0.167905,-0.50304 0.192867,0.04 0.320902,-0.076 0.284522,-0.25794 -0.08338,-0.41689 0.26097,-0.42695 0.668392,-0.0195 0.227257,0.22725 0.232792,0.40568 0.02052,0.66146 -0.34751,0.41872 0.137453,1.144 0.764943,1.144 0.325576,0 0.336749,-0.0724 0.06219,-0.40327 -0.454272,-0.54736 -0.117895,-0.82006 0.446576,-0.36204 0.30044,0.24378 0.386835,0.25654 0.255363,0.0377 -0.324979,-0.54092 0.128316,-0.37572 0.664089,0.24203 l 0.49675,0.57276 0.609671,-0.57276 c 0.717451,-0.67401 0.972441,-0.72013 0.972441,-0.17588 0,0.21828 0.183813,0.39688 0.408474,0.39688 0.22466,0 0.389147,-0.14883 0.365526,-0.33073 -0.02362,-0.1819 -0.02522,-0.62839 -0.0036,-0.99219 0.03584,-0.6018 0.06497,-0.61745 0.322992,-0.17358 0.155979,0.26834 0.312435,0.68506 0.34768,0.92604 0.07711,0.52724 0.882131,0.73429 1.285735,0.33068 0.209473,-0.20947 0.124328,-0.28939 -0.308302,-0.28939 -0.332548,0 -0.524891,-0.11781 -0.433577,-0.26556 0.09027,-0.14605 0.484247,-0.18912 0.875511,-0.0957 1.04294,0.249 1.167878,0.36751 0.824132,0.7817 -0.245823,0.2962 -0.217921,0.37332 0.135058,0.37332 0.244688,0 0.376387,-0.11084 0.292665,-0.2463 -0.180498,-0.29205 0.0057,-0.41512 0.980888,-0.6482 0.56674,-0.13547 0.727604,-0.0788 0.727604,0.25631 0,0.27372 -0.144373,0.37482 -0.396875,0.27793 -0.218281,-0.0838 -0.396875,-0.037 -0.396875,0.10398 0,0.47321 0.927452,0.26203 1.271968,-0.28963 0.419336,-0.67146 1.52435,-0.60903 1.46941,0.083 -0.02021,0.25459 0.06909,0.46289 0.198437,0.46289 0.129352,0 0.235186,-0.21828 0.235186,-0.48507 0,-0.26679 0.173356,-0.48507 0.385236,-0.48507 0.211881,0 0.329001,0.091 0.260268,0.2022 -0.06873,0.11122 -0.0075,0.27484 0.136173,0.3636 0.302278,0.18682 0.670266,-1.02492 0.42954,-1.41442 -0.08883,-0.14374 -0.04695,-0.33215 0.09308,-0.41869 0.140025,-0.0865 0.377256,0.28691 0.527182,0.82989 0.204423,0.74036 0.191458,1.03878 -0.05184,1.19335 -0.187277,0.11897 0.06705,0.19484 0.601613,0.17947 0.509323,-0.0147 0.70894,-0.0828 0.443592,-0.15139 -0.297937,-0.077 -0.424423,-0.27595 -0.330729,-0.52011 0.08345,-0.21746 0.15534,-0.594 0.159766,-0.83675 0.0066,-0.36304 0.06131,-0.34746 0.308118,0.0878 0.401579,0.70818 0.817674,0.95637 1.111221,0.66282 0.145187,-0.14518 0.435665,-0.13709 0.729816,0.0203 0.344323,0.18428 0.488632,0.17105 0.488632,-0.0448 0,-0.22969 0.09086,-0.23088 0.36334,-0.005 0.199837,0.16585 0.557024,0.22722 0.79375,0.13638 0.287453,-0.11031 0.43041,-0.0239 0.43041,0.26002 0,0.24879 0.219528,0.42518 0.529167,0.42518 0.291042,0 0.588698,0 0.661459,0 0.07276,0 0.102526,-0.0874 0.06614,-0.1941 -0.03638,-0.10676 -0.287665,-0.15658 -0.558411,-0.11071 -0.299532,0.0507 -0.449302,-0.0455 -0.382532,-0.2458 0.140925,-0.42278 1.027544,-0.55554 1.437548,-0.21527 0.211333,0.17539 0.375671,0.16615 0.495583,-0.0279 0.127651,-0.20654 0.29291,-0.19608 0.572886,0.0363 0.309015,0.25646 0.436298,0.2573 0.592913,0.004 0.109683,-0.17747 0.38622,-0.251 0.614529,-0.16339 0.228307,0.0876 0.497279,0.0263 0.597715,-0.13617 0.117637,-0.19035 0.291902,-0.20605 0.489784,-0.0441 0.472834,0.3869 2.435003,0.49485 2.36606,0.13018 -0.0774,-0.40943 0.545761,-0.62656 0.997294,-0.3475 0.296368,0.18316 0.272484,0.32326 -0.131146,0.76927 -0.486606,0.53769 -0.483685,0.54532 0.208957,0.54532 0.550895,0 0.70334,-0.12845 0.706517,-0.59531 0.0021,-0.32743 0.09152,-0.47625 0.198438,-0.33073 0.194574,0.26484 0.795261,0.27019 2.913396,0.026 0.622332,-0.0718 1.066874,-0.0259 0.987872,0.10194 -0.295061,0.47742 0.444137,0.56705 0.800224,0.097 0.353383,-0.46645 0.371253,-0.46147 0.379273,0.1058 0.0046,0.32742 0.127476,0.59531 0.272997,0.59531 0.145521,0 0.264583,-0.17859 0.264583,-0.39688 0,-0.21828 0.119063,-0.39687 0.264583,-0.39687 0.145521,0 0.264584,0.13364 0.264584,0.29698 0,0.20624 0.120311,0.19713 0.393745,-0.0298 0.318873,-0.26464 0.424876,-0.24565 0.557474,0.0999 0.244703,0.63768 0.590074,0.51513 0.684853,-0.24301 0.04604,-0.36833 0.202782,-0.66969 0.348303,-0.66969 0.145521,0 0.302257,0.30136 0.348303,0.66969 0.10279,0.82223 0.338711,0.8486 0.81199,0.0908 0.355447,-0.56916 0.368274,-0.57028 0.760698,-0.0661 0.334412,0.4296 0.373272,0.43767 0.239575,0.0498 -0.199213,-0.578 0.172315,-0.60263 0.637387,-0.0423 0.317508,0.38258 0.380492,0.37798 0.693856,-0.0506 0.321689,-0.43993 0.344649,-0.43271 0.344649,0.1084 0,0.40335 0.161002,0.57974 0.529167,0.57974 0.291042,0 0.529167,-0.16867 0.529167,-0.37483 0,-0.20615 0.144335,-0.42294 0.320743,-0.48174 0.574014,-0.19133 1.531344,0.11533 1.531344,0.49054 0,0.20131 0.11906,0.36603 0.26458,0.36603 0.14552,0 0.26459,-0.16586 0.26459,-0.36857 0,-0.20271 0.17859,-0.4371 0.39687,-0.52086 0.21828,-0.0838 0.39688,-0.0224 0.39688,0.13638 0,0.19042 0.13507,0.17657 0.39687,-0.0407 0.33263,-0.27606 0.39688,-0.23373 0.39688,0.2615 v 0.59087 l 0.52036,-0.62462 c 0.47787,-0.57362 0.52108,-0.58274 0.52917,-0.11172 0.009,0.50239 0.0189,0.50209 0.50039,-0.0148 0.73196,-0.78566 0.86351,-2.20553 0.26397,-2.84905 -0.48102,-0.51633 -0.49106,-0.51661 -0.49503,-0.0141 -0.002,0.30363 -0.0834,0.39564 -0.19844,0.2255 -0.22694,-0.33556 -1.96927,-0.34756 -2.21172,-0.0152 -0.0909,0.12458 -2.951395,0.24984 -6.356665,0.27834 -3.405267,0.0285 -6.337229,0.14197 -6.51547,0.25213 -0.186648,0.11535 -0.324073,0.0662 -0.324073,-0.11588 0,-0.22249 -0.352726,-0.26781 -1.190625,-0.15296 -0.689716,0.0945 -1.190625,0.0575 -1.190625,-0.088 0,-0.38223 -0.871421,0.006 -1.352759,0.60234 -0.482605,0.59813 -1.028491,0.41153 -1.028491,-0.35157 0,-0.60846 -0.813932,-0.86392 -2.274178,-0.71378 -0.863997,0.0888 -0.794901,0.11417 0.422095,0.15476 0.930471,0.031 1.325631,0.13063 1.095864,0.27621 -0.197638,0.12523 -1.269201,0.19495 -2.38125,0.15493 -1.112049,-0.04 -2.140969,0.0212 -2.286489,0.13608 -0.30974,0.24448 -1.115428,0.18951 -1.820987,-0.12424 -0.293608,-0.13057 -0.680842,-0.10734 -0.943317,0.0566 -0.297505,0.18579 -0.60031,0.19128 -0.912561,0.0165 -0.257024,-0.14384 -0.697942,-0.20122 -0.979818,-0.1275 -0.281877,0.0737 -1.194904,0.0404 -2.028952,-0.074 -1.042609,-0.143 -1.577189,-0.11499 -1.710835,0.0896 -0.137967,0.21124 -0.195562,0.20163 -0.198438,-0.0331 -0.0025,-0.20188 -0.370932,-0.33073 -0.945708,-0.33073 -0.517911,0 -0.880336,-0.0992 -0.805388,-0.22049 0.07495,-0.12127 -0.03185,-0.22049 -0.23733,-0.22049 -0.205479,0 -0.312277,0.0992 -0.23733,0.22049 0.07495,0.12127 -0.466071,0.22049 -1.202264,0.22049 -0.736192,0 -1.338637,0.0893 -1.338766,0.19843 -1.29e-4,0.10914 -1.160989,0.19093 -2.579688,0.18175 -1.418699,-0.009 -2.835023,0.0725 -3.147387,0.18148 -0.334941,0.11687 -0.736629,0.0694 -0.979138,-0.1156 -0.369101,-0.28165 -0.362744,-0.37231 0.06209,-0.88552 0.47295,-0.57132 0.482155,-0.57172 12.536219,-0.54761 9.438799,0.0189 12.151665,-0.0495 12.470864,-0.31443 0.33533,-0.2783 0.483253,-0.26324 0.831088,0.0846 0.462666,0.46266 0.914519,0.55701 0.914519,0.19096 0,-0.1277 -0.170596,-0.37377 -0.379103,-0.54681 -0.412068,-0.34199 -0.454335,-1.33767 -0.05678,-1.33767 0.134892,0 0.397576,-0.20836 0.583742,-0.46302 0.316907,-0.4335 1.895917,-0.47146 24.767714,-0.59531 13.43607,-0.0728 24.64244,-0.0874 24.90303,-0.0325 0.43664,0.092 0.43145,0.1295 -0.0661,0.47802 -0.29698,0.20801 -0.53996,0.50242 -0.53996,0.65424 0,0.42434 -1.74804,2.07521 -2.19736,2.07521 -0.219,0 -0.69548,0.50729 -1.05884,1.12732 -0.38593,0.65853 -1.11155,1.38074 -1.74493,1.73672 -0.59636,0.33517 -1.08428,0.77821 -1.08428,0.98453 0,0.52391 -1.71566,2.23684 -2.24041,2.23684 -0.24412,0 -0.60092,0.40327 -0.81935,0.92604 -0.42757,1.02332 -1.227,1.24345 -1.68155,0.46302 -0.24085,-0.4135 -0.27054,-0.39936 -0.27773,0.1323 l -0.008,0.59531 H 87.581495 c -19.936355,0 -36.247918,-0.0365 -36.247918,-0.0811 z m 17.991668,-4.00431 c 0,-0.0642 -0.119063,-0.19026 -0.264584,-0.2802 -0.145521,-0.0899 -0.264583,-0.0374 -0.264583,0.11668 0,0.15411 0.119062,0.2802 0.264583,0.2802 0.145521,0 0.264584,-0.0525 0.264584,-0.11668 z m 6.680729,-0.0586 c -0.181901,-0.0734 -0.479557,-0.0734 -0.661458,0 -0.181901,0.0734 -0.03307,0.13345 0.330729,0.13345 0.363802,0 0.51263,-0.0601 0.330729,-0.13345 z m 6.085417,0 c -0.181901,-0.0734 -0.479557,-0.0734 -0.661459,0 -0.181901,0.0734 -0.03307,0.13345 0.33073,0.13345 0.363802,0 0.51263,-0.0601 0.330729,-0.13345 z m 7.871354,-0.0893 c 0,-0.14553 -0.0525,-0.26459 -0.116676,-0.26459 -0.06417,0 -0.190262,0.11906 -0.280199,0.26459 -0.08994,0.14552 -0.03743,0.26458 0.116676,0.26458 0.154109,0 0.280199,-0.11906 0.280199,-0.26458 z m 18.256255,0.1479 c 0,-0.0642 -0.11907,-0.19026 -0.26459,-0.2802 -0.14552,-0.0899 -0.26458,-0.0374 -0.26458,0.11668 0,0.15411 0.11906,0.2802 0.26458,0.2802 0.14552,0 0.26459,-0.0525 0.26459,-0.11668 z m 2.57968,-0.0657 c -0.25466,-0.0665 -0.67138,-0.0665 -0.92604,0 -0.25466,0.0666 -0.0463,0.121 0.46302,0.121 0.50933,0 0.71768,-0.0545 0.46302,-0.121 z m 1.93211,-0.19891 c 0.0129,0.47588 0.0444,0.46988 0.42915,-0.0817 0.4581,-0.65672 0.94521,-0.80881 0.72126,-0.2252 -0.0781,0.20356 -0.0149,0.44871 0.14059,0.54478 0.15544,0.0961 0.28262,0.0486 0.28262,-0.10553 0,-0.15411 0.0893,-0.26067 0.19844,-0.2368 1.22041,0.26693 2.60307,-1.51302 1.79952,-2.31658 -0.49756,-0.49755 -0.85884,-0.46972 -1.17327,0.0904 -0.22213,0.39567 -0.2824,0.40475 -0.41438,0.0624 -0.12746,-0.33061 -0.88604,-0.41147 -4.34053,-0.46271 l -4.18609,-0.0621 -0.0386,1.12418 c -0.0409,1.19199 0.33725,2.11093 0.68045,1.65333 0.35664,-0.47551 1.35963,-0.92313 1.51288,-0.67517 0.0816,0.13202 0.68471,0.20418 1.34026,0.16035 0.65555,-0.0438 1.25739,0.0263 1.33741,0.15574 0.08,0.12948 0.25717,0.1664 0.39367,0.082 0.13649,-0.0844 0.32601,0.0495 0.42114,0.29738 0.16034,0.41784 0.19887,0.41537 0.5273,-0.0338 0.34087,-0.46616 0.35485,-0.46506 0.3682,0.029 z m 4.35175,0.11672 c -0.0899,-0.14553 -0.27556,-0.26459 -0.41249,-0.26459 -0.13694,0 -0.24897,0.11906 -0.24897,0.26459 0,0.14552 0.18562,0.26458 0.41249,0.26458 0.22687,0 0.33891,-0.11906 0.24897,-0.26458 z m 4.36562,-0.1323 c 0,-0.21828 -0.0992,-0.39687 -0.22048,-0.39687 -0.12127,0 -0.22049,0.17859 -0.22049,0.39687 0,0.21828 0.0992,0.39688 0.22049,0.39688 0.12126,0 0.22048,-0.1786 0.22048,-0.39688 z m 1.17764,-0.33073 c -0.14299,-0.66969 -0.12468,-0.68993 0.23008,-0.25431 0.2623,0.3221 0.68524,0.45311 1.32393,0.41009 1.12198,-0.0756 1.40563,-0.71606 0.81927,-1.84996 -0.3389,-0.65535 -0.54128,-0.75321 -1.55772,-0.75321 -0.64252,0 -1.24538,0.12484 -1.33968,0.27743 -0.11172,0.18077 -0.27916,0.18805 -0.48058,0.0209 -0.17001,-0.1411 -1.27842,-0.25654 -2.46313,-0.25654 -2.06128,0 -2.15923,0.0272 -2.27494,0.63256 -0.0665,0.34791 -0.0276,0.57491 0.0864,0.50444 0.11402,-0.0705 0.28664,0.12181 0.3836,0.4273 0.1366,0.43039 0.31958,0.51947 0.8128,0.39568 0.46729,-0.11729 0.63651,-0.0507 0.63651,0.25046 0,0.54779 0.64738,0.76892 1.2407,0.4238 0.41515,-0.24149 0.37609,-0.27975 -0.29261,-0.28673 -1.04772,-0.0109 -0.6956,-0.2946 0.48162,-0.388 0.69871,-0.0554 1.10584,0.0819 1.54539,0.52131 0.80903,0.80877 1.03288,0.78893 0.84837,-0.0752 z m -4.35264,0.19844 c 0,-0.14552 -0.17859,-0.26458 -0.39687,-0.26458 -0.21828,0 -0.39688,0.11906 -0.39688,0.26458 0,0.14552 0.1786,0.26459 0.39688,0.26459 0.21828,0 0.39687,-0.11907 0.39687,-0.26459 z m 8.91199,-0.57877 c -0.0845,-0.21107 -0.14715,-0.14838 -0.15985,0.15985 -0.0115,0.27891 0.0511,0.43518 0.13897,0.34726 0.0879,-0.0879 0.0973,-0.31612 0.0209,-0.50711 z m -24.32397,-5.70478 c -3.019554,-0.0424 -7.960648,-0.0424 -10.980205,0 -3.019558,0.0425 -0.549011,0.0772 5.490104,0.0772 6.039111,0 8.509661,-0.0347 5.490101,-0.0772 z m 7.94224,-0.2555 c -0.39757,-0.0604 -1.11195,-0.0616 -1.5875,-0.003 -0.47555,0.0589 -0.15026,0.10828 0.72287,0.10977 0.87312,0.001 1.26221,-0.0467 0.86463,-0.10707 z m -11.940522,6.40676 c -0.08376,-0.21828 -0.03697,-0.39687 0.103984,-0.39687 0.140954,0 0.25628,0.17859 0.25628,0.39687 0,0.21828 -0.04679,0.39688 -0.103984,0.39688 -0.05719,0 -0.172516,-0.1786 -0.25628,-0.39688 z m -38.665779,-0.13229 c -0.08994,-0.14552 0.0221,-0.26458 0.248969,-0.26458 0.226869,0 0.41249,0.11906 0.41249,0.26458 0,0.14552 -0.112036,0.26458 -0.248969,0.26458 -0.136933,0 -0.322553,-0.11906 -0.41249,-0.26458 z m 17.716205,-0.81135 c -0.09592,-0.15521 -0.110869,-0.34572 -0.03322,-0.42337 0.189526,-0.18953 0.705557,0.14441 0.705557,0.45658 0,0.33813 -0.45678,0.31557 -0.672338,-0.0332 z m 20.924264,0.0359 c -0.08373,-0.13546 -0.03122,-0.32109 0.116676,-0.41249 0.147894,-0.0914 0.268898,0.0194 0.268898,0.2463 0,0.46475 -0.158766,0.53318 -0.385574,0.16619 z m -37.449844,-0.28286 c 0,-0.14553 0.119063,-0.26459 0.264584,-0.26459 0.14552,0 0.264583,0.11906 0.264583,0.26459 0,0.14552 -0.119063,0.26458 -0.264583,0.26458 -0.145521,0 -0.264584,-0.11906 -0.264584,-0.26458 z m 5.820834,-1.05834 c 0,-0.14552 0.126089,-0.26458 0.280198,-0.26458 0.154109,0 0.206614,0.11906 0.116677,0.26458 -0.08994,0.14552 -0.216026,0.26459 -0.280198,0.26459 -0.06417,0 -0.116677,-0.11907 -0.116677,-0.26459 z"
           id="path1643" />
        <path
           style="fill:#065489;stroke-width:0.264583"
           d="m 51.189086,116.03213 c -0.09675,-0.15655 0.953318,-1.40423 2.336656,-2.77638 1.381807,-1.37062 2.582249,-2.67413 2.667647,-2.89667 0.239599,-0.62439 0.958525,-0.77942 1.379358,-0.29746 0.207517,0.23766 0.234004,0.31347 0.05886,0.16847 -0.437469,-0.36218 -0.755177,-0.33063 -0.675633,0.0671 0.03638,0.1819 -0.09166,0.29797 -0.284522,0.25794 -0.247539,-0.0514 -0.296919,0.0966 -0.167905,0.50304 0.147424,0.46449 0.09772,0.54321 -0.257032,0.40707 -0.441275,-0.16933 -2.00252,1.14463 -2.00252,1.68534 0,0.14051 -0.134456,0.25547 -0.298792,0.25547 -0.239941,0 -2.611625,2.31312 -2.611625,2.54714 0,0.0349 0.327422,0.11314 0.727604,0.17376 l 0.727605,0.11023 -0.71199,0.0396 c -0.391594,0.0218 -0.791064,-0.0883 -0.88771,-0.24468 z m 37.252305,0.0859 35.388019,-0.0681 0.008,-0.59435 c 0.007,-0.53099 0.0368,-0.54499 0.27773,-0.13133 0.14832,0.25467 0.47212,0.47711 0.71956,0.49433 0.24743,0.0172 0.0927,0.12219 -0.34388,0.23328 -0.43656,0.11108 -16.68859,0.18673 -36.115625,0.1681 l -35.321876,-0.0339 z m 37.317749,-1.12448 c 0.24808,-0.64653 0.54831,-0.95402 0.99468,-1.01873 l 0.63935,-0.0927 -0.58921,0.48956 c -0.32406,0.26925 -0.77167,0.72768 -0.99468,1.01872 -0.37008,0.48298 -0.37446,0.44833 -0.0501,-0.39687 z m 2.27294,-2.05938 c 0.17263,-0.32255 0.42874,-0.58646 0.56914,-0.58646 0.1404,0 0.25528,-0.2305 0.25528,-0.51224 0,-0.32412 0.39818,-0.73602 1.08428,-1.12163 0.63338,-0.35598 1.359,-1.07819 1.74493,-1.73672 0.4108,-0.70099 0.85127,-1.12732 1.16468,-1.12732 0.27721,0 0.50402,-0.13891 0.50402,-0.30869 0,-0.16977 0.0709,-0.23781 0.15749,-0.15119 0.0866,0.0866 -1.18152,1.50147 -2.8181,3.1441 -1.63657,1.64264 -2.83434,2.72271 -2.66172,2.40015 z m -50.438606,-0.78973 c -0.589526,-0.0972 -0.811538,-0.6902 -0.36232,-0.96783 0.375504,-0.23207 0.513053,-1.45006 0.193016,-1.70916 -0.161544,-0.13079 -0.531842,-0.29633 -0.822884,-0.36787 -0.490352,-0.12053 -0.486645,-0.13232 0.05053,-0.16076 0.318833,-0.0169 0.655235,0.0915 0.747556,0.24091 0.09232,0.14938 0.362924,0.23868 0.601337,0.19844 0.239533,-0.0404 0.475962,0.13358 0.528437,0.38893 0.06764,0.32916 -0.02474,0.41616 -0.321138,0.30242 -0.491768,-0.18871 -0.549789,0.18658 -0.0986,0.63778 0.309731,0.30973 0.276193,0.34838 -0.361599,0.41671 -0.169772,0.0182 -0.364307,0.19996 -0.432297,0.40393 -0.08903,0.26711 0.03424,0.32957 0.440709,0.22327 0.31038,-0.0812 0.625919,-0.0479 0.701198,0.0739 0.189783,0.30708 -0.158112,0.43567 -0.863949,0.31934 z m -19.915203,-0.46458 c -0.545224,-0.65695 -0.03087,-0.80883 0.600619,-0.17734 0.466628,0.46662 0.497517,0.58061 0.157339,0.58061 -0.232801,0 -0.573882,-0.18147 -0.757958,-0.40327 z m 2.121973,-0.1259 c -0.399786,-0.55467 -0.963179,-0.75278 -0.636193,-0.2237 0.121695,0.19691 0.07204,0.23331 -0.13973,0.10243 -0.214595,-0.13263 -0.23858,-0.29298 -0.06916,-0.46239 0.169415,-0.16941 0.500469,-0.10137 0.954656,0.19623 0.673625,0.44137 0.712092,0.43622 1.233805,-0.16532 0.450994,-0.52 0.578419,-0.55778 0.784138,-0.23251 0.1351,0.21361 0.247459,0.48471 0.249688,0.60244 0.0022,0.11773 0.123114,0.14047 0.268635,0.0505 0.14552,-0.0899 0.264583,-0.0374 0.264583,0.11668 0,0.15411 -0.178594,0.2802 -0.396875,0.2802 -0.218281,0 -0.396875,-0.1786 -0.396875,-0.39688 0,-0.54752 -0.356972,-0.49652 -0.926042,0.13229 -0.263389,0.29104 -0.553214,0.52917 -0.644056,0.52917 -0.09084,0 -0.336798,-0.23813 -0.546569,-0.52917 z m 5.818235,0.13542 c 0.261539,-0.31513 0.254801,-0.41659 -0.03375,-0.5082 -1.07289,-0.34062 -1.129563,-0.38008 -0.57458,-0.40008 0.57231,-0.0206 0.945306,0.3267 1.043097,0.9713 0.0276,0.1819 -0.132462,0.33073 -0.355686,0.33073 -0.329331,0 -0.344243,-0.0742 -0.07908,-0.39375 z m 1.325515,0.13747 c 0,-0.14095 0.178594,-0.18775 0.396875,-0.10398 0.218282,0.0838 0.396875,0.0332 0.396875,-0.11229 0,-0.14552 0.176852,-0.33245 0.393004,-0.4154 0.32872,-0.12614 0.339948,-0.0658 0.06865,0.36857 -0.33185,0.53138 -1.255401,0.72493 -1.255401,0.2631 z m 1.852084,-0.0239 c 0,-0.15411 0.119062,-0.20661 0.264583,-0.11668 0.145521,0.0899 0.264584,0.21603 0.264584,0.2802 0,0.0642 -0.119063,0.11668 -0.264584,0.11668 -0.145521,0 -0.264583,-0.12609 -0.264583,-0.2802 z m 0.933205,0.004 c 0.09388,-0.1519 0.02453,-0.45228 -0.154101,-0.66752 -0.267757,-0.32263 -0.248528,-0.36208 0.109514,-0.22469 0.475542,0.18249 0.605574,1.16838 0.1541,1.16838 -0.154109,0 -0.20339,-0.12428 -0.109513,-0.27617 z m 2.184611,0.0525 c 0.18683,-0.11855 0.29564,-0.38462 0.2418,-0.59126 -0.05384,-0.20665 -0.0477,-0.28569 0.01363,-0.17564 0.06134,0.11005 0.219054,0.13363 0.35048,0.0524 0.131424,-0.0812 0.172043,0.0267 0.09027,0.2398 -0.09028,0.23525 0.04085,0.43648 0.333759,0.51221 0.265348,0.0686 0.06573,0.13673 -0.443593,0.15139 -0.570158,0.0164 -0.795496,-0.0562 -0.586351,-0.1889 z m 3.430622,0.0484 c 0.181901,-0.0734 0.479557,-0.0734 0.661458,0 0.181901,0.0734 0.03307,0.13345 -0.330729,0.13345 -0.363802,0 -0.51263,-0.0601 -0.330729,-0.13345 z m 6.085416,0 c 0.181902,-0.0734 0.479558,-0.0734 0.661459,0 0.181901,0.0734 0.03307,0.13345 -0.330729,0.13345 -0.363802,0 -0.512631,-0.0601 -0.33073,-0.13345 z m 3.770313,-0.22165 c 0.181158,-0.21828 0.493392,-0.39687 0.693854,-0.39687 0.200464,0 0.364479,0.17859 0.364479,0.39687 0,0.25189 -0.253484,0.39688 -0.693853,0.39688 -0.586762,0 -0.64302,-0.0613 -0.36448,-0.39688 z m 4.365625,0.1323 c 0.08994,-0.14553 0.216027,-0.26459 0.280199,-0.26459 0.06417,0 0.116676,0.11906 0.116676,0.26459 0,0.14552 -0.12609,0.26458 -0.280199,0.26458 -0.154109,0 -0.206613,-0.11906 -0.116676,-0.26458 z m 1.988426,0.0661 c 0.0021,-0.10914 0.119467,-0.37703 0.260533,-0.59531 0.207399,-0.32093 0.257254,-0.28296 0.260532,0.19844 0.0022,0.32742 -0.115011,0.59531 -0.260532,0.59531 -0.145521,0 -0.262761,-0.0893 -0.260533,-0.19844 z m 2.005502,-0.22823 c -0.139848,-0.36444 -0.227441,-0.37409 -0.600501,-0.0662 -0.373367,0.30819 -0.417761,0.30291 -0.305811,-0.0363 0.199713,-0.60522 1.542593,-0.57088 1.542593,0.0395 0,0.60279 -0.413441,0.64376 -0.636281,0.0631 z m 1.430031,-0.0716 c 0,-0.29075 0.242226,-0.56165 0.581543,-0.65038 0.603549,-0.15784 1.27054,0.21095 1.27054,0.70249 0,0.15551 -0.163602,0.059 -0.363561,-0.21444 -0.352158,-0.48161 -0.374899,-0.47905 -0.725104,0.0817 -0.443926,0.71084 -0.763418,0.74458 -0.763418,0.0806 z m 3.439583,0.10143 c 0,-0.21828 0.119063,-0.39687 0.264584,-0.39687 0.14552,0 0.264583,0.14182 0.264583,0.31515 0,0.17334 0.172672,0.084 0.383715,-0.19844 0.370599,-0.49603 0.378589,-0.49323 0.233725,0.0817 -0.168254,0.6678 -1.146607,0.83711 -1.146607,0.19843 z m 2.910418,0 c 0,-0.21828 -0.19844,-0.39687 -0.44097,-0.39687 -0.24254,0 -0.37057,-0.0704 -0.28453,-0.15645 0.27194,-0.27193 1.25467,0.17543 1.25467,0.57115 0,0.20848 -0.11907,0.37905 -0.26459,0.37905 -0.14552,0 -0.26458,-0.1786 -0.26458,-0.39688 z m 2.11667,0.0534 c 0,-0.23741 0.26789,-0.57224 0.59531,-0.74405 l 0.59531,-0.3124 -0.52635,0.63382 c -0.28949,0.34859 -0.55738,0.68342 -0.59531,0.74405 -0.0379,0.0606 -0.069,-0.084 -0.069,-0.32142 z m 4.23333,0.0633 c 0,-0.15411 0.11906,-0.20661 0.26458,-0.11668 0.14552,0.0899 0.26459,0.21603 0.26459,0.2802 0,0.0642 -0.11907,0.11668 -0.26459,0.11668 -0.14552,0 -0.26458,-0.12609 -0.26458,-0.2802 z m 2.18281,0.0978 c 0.25466,-0.0665 0.67138,-0.0665 0.92604,0 0.25466,0.0666 0.0463,0.121 -0.46302,0.121 -0.50932,0 -0.71768,-0.0545 -0.46302,-0.121 z m 1.94595,-0.23765 c -0.22628,-0.5897 -0.20825,-0.63829 0.23686,-0.63829 0.21829,0 0.39688,0.17156 0.39688,0.38126 0,0.55975 -0.44787,0.7414 -0.63374,0.25703 z m 0.90674,-0.15966 c -0.009,-0.79334 0.38722,-1.20822 0.60714,-0.63512 0.078,0.2033 -0.0248,0.58957 -0.22844,0.85837 -0.34688,0.45784 -0.37082,0.44373 -0.3787,-0.22325 z m 1.20415,0.35063 c -0.28237,-0.45689 -0.0464,-0.63574 0.9692,-0.73457 0.80047,-0.0779 0.82568,-0.0569 0.35894,0.29916 -0.2761,0.21062 -0.59335,0.32649 -0.705,0.25748 -0.11166,-0.069 -0.25091,0.0182 -0.30946,0.19388 -0.0812,0.24352 -0.15565,0.23974 -0.31368,-0.016 z m 2.4916,-0.0355 c 0,-0.14553 0.11203,-0.26459 0.24897,-0.26459 0.13693,0 0.32255,0.11906 0.41249,0.26459 0.0899,0.14552 -0.0221,0.26458 -0.24897,0.26458 -0.22687,0 -0.41249,-0.11906 -0.41249,-0.26458 z m 4.58611,-0.1323 c 0,-0.21828 0.0992,-0.39687 0.22049,-0.39687 0.12126,0 0.22048,0.17859 0.22048,0.39687 0,0.21828 -0.0992,0.39688 -0.22048,0.39688 -0.12127,0 -0.22049,-0.1786 -0.22049,-0.39688 z m 0.99905,-0.19843 c -0.19963,-0.32743 -0.26422,-0.50229 -0.14354,-0.38858 0.12068,0.1137 0.35062,-0.0384 0.51098,-0.33805 0.26022,-0.48622 0.29157,-0.44445 0.29157,0.38857 0,1.08472 -0.15522,1.16434 -0.65901,0.33806 z m -58.600201,0.12103 c -0.07128,-0.11534 0.22795,-0.23695 0.664956,-0.27025 0.485934,-0.037 0.729684,0.0444 0.627539,0.2097 -0.197267,0.31919 -1.106328,0.36177 -1.292495,0.0606 z m 7.403171,-0.008 c -0.09332,-0.151 -0.04075,-0.35423 0.116822,-0.45162 0.393197,-0.24301 0.532395,-0.0497 0.269983,0.37485 -0.140586,0.22748 -0.276939,0.25454 -0.386805,0.0768 z m 19.55041,-0.0465 c -0.08994,-0.14552 -0.12673,-0.27369 -0.08176,-0.28482 0.761743,-0.18861 0.953915,-0.14719 0.828884,0.17863 -0.166293,0.43336 -0.51435,0.48283 -0.747124,0.10619 z m 7.056094,-0.0785 c -0.210497,-0.25363 -0.152321,-0.33726 0.234606,-0.33726 0.536366,0 0.684197,0.27967 0.279905,0.52954 -0.129032,0.0797 -0.360563,-0.007 -0.514511,-0.19228 z m 7.099116,0.0785 c 0,-0.14552 0.12609,-0.26458 0.2802,-0.26458 0.15411,0 0.20661,0.11906 0.11667,0.26458 -0.0899,0.14552 -0.21602,0.26459 -0.28019,0.26459 -0.0642,0 -0.11668,-0.11907 -0.11668,-0.26459 z m 1.7481,-0.15393 c -0.23084,-0.60154 -0.19047,-0.83203 0.0729,-0.41643 0.18509,0.29203 0.38558,0.27288 1.12043,-0.10703 0.80051,-0.41386 0.85667,-0.41649 0.53188,-0.025 -0.19972,0.24077 -0.52714,0.43776 -0.7276,0.43776 -0.20047,0 -0.36448,0.11906 -0.36448,0.26458 0,0.41856 -0.45601,0.30769 -0.63315,-0.15393 z m 11.21648,0.15393 c 0,-0.14552 0.1786,-0.26458 0.39688,-0.26458 0.21828,0 0.39687,0.11906 0.39687,0.26458 0,0.14552 -0.17859,0.26459 -0.39687,0.26459 -0.21828,0 -0.39688,-0.11907 -0.39688,-0.26459 z m 1.49931,0.0882 c -0.37508,-0.37509 -0.14337,-0.52087 0.64416,-0.40528 0.58205,0.0854 0.71663,0.18628 0.46303,0.34699 -0.43221,0.27389 -0.86862,0.29686 -1.10719,0.0583 z M 75.150129,111.3715 c -0.0067,-0.52179 0.416483,-0.6172 0.949158,-0.21399 0.276101,0.20899 0.360199,0.38377 0.186886,0.3884 -0.173313,0.005 -0.396555,-0.12336 -0.496094,-0.28442 -0.126161,-0.20413 -0.249875,-0.1841 -0.40844,0.0661 -0.152199,0.2402 -0.228798,0.25471 -0.23151,0.0439 z m 8.349668,-0.0541 c -0.449096,-0.17593 -0.457983,-0.21961 -0.07462,-0.36672 0.239361,-0.0919 0.506775,-0.0512 0.594249,0.0903 0.08748,0.14154 0.28828,0.17747 0.446231,0.0798 0.171402,-0.10593 0.211071,-0.0543 0.09839,0.12798 -0.212593,0.34398 -0.340188,0.3522 -1.064255,0.0686 z m 3.95128,-0.0246 c -0.09269,-0.14998 0.01352,-0.19434 0.248967,-0.10399 0.45837,0.1759 0.542235,0.36554 0.16165,0.36554 -0.136932,0 -0.321712,-0.1177 -0.410617,-0.26155 z m 35.584583,0.0252 c 0,-0.14178 0.28331,-0.20641 0.62957,-0.14362 0.81436,0.14767 1.21265,-0.35307 1.0315,-1.29684 -0.13743,-0.71597 -0.20263,-0.74662 -1.40687,-0.66146 -0.69452,0.0491 -1.20741,10e-6 -1.13974,-0.10913 0.0677,-0.10914 0.64872,-0.19844 1.29124,-0.19844 1.01644,0 1.21882,0.0979 1.55772,0.75321 0.60797,1.17568 0.30695,1.7801 -0.92269,1.85265 -0.5724,0.0338 -1.04073,-0.0546 -1.04073,-0.19637 z m 3.98964,-0.18258 c 0.0127,-0.30823 0.0754,-0.37092 0.15985,-0.15985 0.0764,0.19099 0.067,0.4192 -0.0209,0.50711 -0.0879,0.0879 -0.15046,-0.0684 -0.13897,-0.34726 z m -60.345889,0.0503 c 0,-0.0572 0.184778,-0.17489 0.410617,-0.26155 0.235459,-0.0904 0.341662,-0.046 0.248968,0.10399 -0.155378,0.2514 -0.659585,0.37185 -0.659585,0.15756 z m 14.605972,-0.41315 c 0.365066,-0.58456 0.622104,-0.51169 0.383976,0.10885 -0.08617,0.22456 -0.280482,0.40829 -0.431802,0.40829 -0.174139,0 -0.156581,-0.18983 0.04783,-0.51714 z m 24.053627,-0.48335 c -0.0168,-0.47751 -0.19587,-0.93169 -0.39807,-1.00928 -0.21652,-0.0831 -0.31118,-0.35694 -0.2303,-0.66624 0.13399,-0.51239 0.14856,-0.51313 0.59829,-0.0304 0.36221,0.38879 0.41806,0.71748 0.26073,1.53444 -0.19785,1.02733 -0.20059,1.02936 -0.23065,0.17148 z m 15.05082,0.63192 c 0,-0.0572 0.18478,-0.17489 0.41062,-0.26155 0.23546,-0.0904 0.34166,-0.046 0.24896,0.10398 -0.15537,0.25141 -0.65958,0.37186 -0.65958,0.15757 z m -47.4561,-0.55747 c -0.08376,-0.21828 -0.03697,-0.39688 0.103984,-0.39688 0.140954,0 0.256281,0.1786 0.256281,0.39688 0,0.21828 -0.04679,0.39687 -0.103984,0.39687 -0.05719,0 -0.172516,-0.17859 -0.256281,-0.39687 z m 11.586158,-0.13531 c 0,-0.25632 0.143949,-0.41079 0.319886,-0.34328 0.17594,0.0675 0.444312,-0.10973 0.596384,-0.39388 0.287843,-0.53784 1.351587,-0.97698 1.351587,-0.55797 0,0.1319 -0.230103,0.23981 -0.511336,0.23981 -0.511823,0 -0.973262,0.84726 -0.701191,1.28748 0.0795,0.12863 -0.125428,0.23388 -0.455393,0.23388 -0.396457,0 -0.599937,-0.15807 -0.599937,-0.46604 z m 4.720473,0.0213 c 0.02117,-0.28096 0.127627,-0.45574 0.236585,-0.3884 0.108959,0.0673 0.131035,0.29722 0.04906,0.51084 -0.2067,0.53865 -0.331417,0.4852 -0.285647,-0.12244 z m 4.955718,0.0855 c 0,-0.52481 0.455345,-0.67781 0.633735,-0.21294 0.213791,0.55714 0.216821,0.55011 -0.23686,0.55011 -0.218281,0 -0.396875,-0.15173 -0.396875,-0.33717 z m 15.712941,0.11778 c 0.0822,-0.41957 0.69123,-0.62048 0.69123,-0.22802 0,0.16624 -0.1089,0.23495 -0.24199,0.15269 -0.13309,-0.0823 -0.30275,-0.0268 -0.37703,0.12329 -0.0743,0.15007 -0.10677,0.12849 -0.0722,-0.048 z m 6.21264,-0.35388 c -0.0686,-0.55907 -0.23351,-0.78302 -0.55763,-0.75747 -0.25309,0.02 -0.3949,-0.0694 -0.31511,-0.19844 0.24049,-0.38913 0.76858,-0.26548 1.15482,0.27039 0.20023,0.27781 0.52417,0.44367 0.71986,0.36857 0.21996,-0.0844 0.35427,0.0511 0.35176,0.35479 -0.003,0.37054 -0.0591,0.40447 -0.22802,0.138 -0.31011,-0.48922 -0.64044,-0.43668 -0.85077,0.13531 -0.13898,0.37795 -0.1986,0.31048 -0.27491,-0.31115 z m 2.1515,0.26459 c 0,-0.21828 0.0992,-0.39688 0.22049,-0.39688 0.12127,0 0.22049,0.1786 0.22049,0.39688 0,0.21828 -0.0992,0.39687 -0.22049,0.39687 -0.12127,0 -0.22049,-0.17859 -0.22049,-0.39687 z m -55.393596,-0.26459 c -0.08376,-0.21828 -0.03697,-0.39687 0.103984,-0.39687 0.140954,0 0.25628,0.17859 0.25628,0.39687 0,0.21828 -0.04679,0.39688 -0.103984,0.39688 -0.05719,0 -0.172518,-0.1786 -0.25628,-0.39688 z m 7.504014,0.12399 c 0,-0.14095 0.178594,-0.25628 0.396875,-0.25628 0.218281,0 0.396875,0.0468 0.396875,0.10399 0,0.0572 -0.178594,0.17251 -0.396875,0.25628 -0.218281,0.0838 -0.396875,0.037 -0.396875,-0.10399 z m 6.085417,0.008 c 0,-0.14553 0.12609,-0.26459 0.280199,-0.26459 0.154109,0 0.206613,0.11906 0.116676,0.26459 -0.08994,0.14552 -0.216027,0.26458 -0.280199,0.26458 -0.06417,0 -0.116676,-0.11906 -0.116676,-0.26458 z m -15.151806,-0.29742 c 0.179476,-0.18082 0.39297,-0.26211 0.474431,-0.18065 0.08146,0.0815 -0.06538,0.2294 -0.326319,0.32876 -0.377084,0.14359 -0.407475,0.1132 -0.148112,-0.14811 z m 34.46639,-0.47693 c 0,-0.13486 -0.20836,-0.29406 -0.463021,-0.3538 -0.254662,-0.0597 -0.02143,-0.10454 0.5183,-0.0996 0.775782,0.007 0.921393,0.0812 0.695206,0.35379 -0.331936,0.39996 -0.750485,0.45549 -0.750485,0.0996 z m 17.084641,0.0114 c -0.0824,-0.13334 -0.57482,-0.24244 -1.09425,-0.24244 -0.51943,0 -1.01586,-0.0714 -1.10317,-0.15875 -0.22697,-0.22697 1.81394,-0.16067 2.42542,0.0788 0.32708,0.12808 0.40525,0.26608 0.21672,0.38259 -0.16218,0.10024 -0.3623,0.0731 -0.44472,-0.0602 z m -55.035776,-0.27331 c -0.05084,-0.0849 0.252051,-0.46805 0.673097,-0.85147 0.421045,-0.38342 0.765537,-0.60636 0.765537,-0.49542 0,0.11094 -0.171517,0.34406 -0.381148,0.51804 -0.209632,0.17398 -0.323571,0.46637 -0.253198,0.64976 0.124157,0.32355 -0.618697,0.48896 -0.804288,0.17909 z m 6.598009,-0.0326 c -0.720057,-0.17418 -0.701634,-0.18494 0.198437,-0.11591 0.545703,0.0419 0.992188,-0.0316 0.992188,-0.16331 0,-0.13167 0.535781,-0.2394 1.190625,-0.2394 1.361294,0 1.628406,0.36753 0.330203,0.45434 -0.472653,0.0316 -1.097495,0.1022 -1.388537,0.15687 -0.291041,0.0547 -0.886354,0.013 -1.322916,-0.0926 z m 4.607539,-0.14906 c -0.251417,-0.30294 -0.157777,-0.36956 0.519439,-0.36956 0.917196,0 1.116273,0.39157 0.306708,0.60328 -0.285691,0.0747 -0.657457,-0.0305 -0.826147,-0.23372 z m 1.874753,0.2037 c -0.145521,-0.0485 -0.264584,-0.18271 -0.264584,-0.29823 0,-0.23558 2.409958,-0.0389 2.69875,0.22023 0.188976,0.16958 -1.953471,0.23823 -2.434166,0.078 z m 3.704166,-0.0441 c -0.544922,-0.17451 -0.568229,-0.21577 -0.132291,-0.23416 0.291041,-0.0123 0.70776,0.0931 0.926041,0.23416 0.463587,0.2996 0.141732,0.2996 -0.79375,0 z m 5.423959,0.0161 c -0.358079,-0.14294 -0.05868,-0.20888 0.926042,-0.20393 1.058492,0.005 1.274884,0.0608 0.79375,0.20346 -0.859177,0.25479 -1.082559,0.25485 -1.719792,4.8e-4 z m 7.508632,-0.09 c 0.127661,-0.12766 0.57404,-0.18946 0.991949,-0.13734 0.699458,0.0872 0.681011,0.10568 -0.232111,0.23211 -0.568785,0.0787 -0.892929,0.0383 -0.759838,-0.0948 z m 3.232581,0.0953 c -0.267695,-0.16949 -0.182501,-0.22372 0.30534,-0.19439 0.372144,0.0224 0.621496,0.12998 0.554109,0.23912 -0.159261,0.25795 -0.401259,0.24535 -0.859449,-0.0447 z m 2.145541,0.0178 c -0.215392,-0.13664 0.02998,-0.22529 0.661458,-0.23897 0.777452,-0.0168 0.884518,0.0289 0.474705,0.20267 -0.687353,0.29152 -0.731618,0.29294 -1.136163,0.0363 z m 4.178625,-0.1054 c 1.35e-4,-0.10914 0.615403,-0.19844 1.367261,-0.19844 0.751856,0 1.295824,0.0712 1.20881,0.1582 -0.23472,0.23472 -2.576359,0.2713 -2.576071,0.0402 z m 3.439831,0.0661 c -0.23847,-0.15411 -0.2711,-0.2581 -0.0818,-0.26053 0.17331,-0.002 0.3887,0.11501 0.47863,0.26053 0.20302,0.32849 0.11143,0.32849 -0.39687,0 z m 1.45521,0 c -0.64173,-0.16329 -0.67973,-0.20797 -0.19844,-0.23328 0.32742,-0.0172 0.59531,-0.13047 0.59531,-0.25167 0,-0.26516 0.96676,-0.22398 1.24372,0.053 0.17994,0.17993 -0.40833,0.72428 -0.71455,0.6612 -0.0728,-0.015 -0.48948,-0.11814 -0.92604,-0.22923 z m 4.10085,-0.0661 c 10e-5,-0.10914 0.85347,-0.19844 1.89637,-0.19844 1.0429,0 1.83765,0.0585 1.76612,0.13006 -0.21707,0.21707 -3.66269,0.28139 -3.66249,0.0684 z m 11.77415,0.0661 -1.05834,-0.18949 0.97658,-0.0375 c 0.53711,-0.0207 1.05015,0.0815 1.14009,0.22704 0.0899,0.14552 0.12673,0.24769 0.0818,0.22704 -0.045,-0.0206 -0.55801,-0.12282 -1.14009,-0.22704 z m -55.893233,-0.18238 c 0.254661,-0.0665 0.67138,-0.0665 0.926041,0 0.254662,0.0666 0.0463,0.121 -0.46302,0.121 -0.509323,0 -0.717683,-0.0545 -0.463021,-0.121 z m 21.633024,-0.0899 c 0.277234,-0.17529 -0.03653,-0.26316 -1.061669,-0.29735 -1.216996,-0.0406 -1.286092,-0.0659 -0.422095,-0.15476 1.131728,-0.11636 2.274178,0.0888 2.274178,0.40851 0,0.11178 -0.26639,0.2233 -0.591976,0.24783 -0.465243,0.035 -0.507728,-0.009 -0.198438,-0.20423 z m 30.374139,0.0915 c 0.19099,-0.0764 0.4192,-0.067 0.50712,0.0209 0.0879,0.0879 -0.0683,0.15045 -0.34727,0.13896 -0.30822,-0.0127 -0.37092,-0.0754 -0.15985,-0.15985 z m 5.80738,-0.006 c 0.32912,-0.0633 0.80537,-0.0609 1.05834,0.005 0.25296,0.0662 -0.0163,0.118 -0.5984,0.11507 -0.58209,-0.003 -0.78906,-0.0571 -0.45994,-0.12041 z m -51.635727,-0.56252 c -0.07495,-0.12127 0.03185,-0.22049 0.23733,-0.22049 0.205478,0 0.312277,0.0992 0.23733,0.22049 -0.07495,0.12127 -0.181746,0.22049 -0.23733,0.22049 -0.05558,0 -0.162383,-0.0992 -0.23733,-0.22049 z m -1.541614,-0.76734 c 0.62231,-0.0559 1.57481,-0.0551 2.116667,0.002 0.541856,0.0568 0.03269,0.10258 -1.131473,0.10162 -1.164167,-9.5e-4 -1.607504,-0.0475 -0.985194,-0.10337 z m 14.68102,0.004 c 0.402182,-0.0608 0.997495,-0.0592 1.322917,0.004 0.325421,0.0628 -0.0036,0.11256 -0.731243,0.11057 -0.727604,-0.002 -0.993857,-0.0534 -0.591674,-0.11418 z m 3.513614,-0.23329 c -0.358913,-0.35892 -0.491533,-0.36896 -0.873602,-0.0662 -0.24775,0.19635 -0.155133,-0.0234 0.205812,-0.48825 0.678958,-0.87448 1.138311,-1.13977 0.900507,-0.52005 -0.07482,0.19497 0.04798,0.5072 0.272886,0.69385 0.224903,0.18666 0.408916,0.44386 0.408916,0.57156 0,0.36605 -0.451853,0.2717 -0.914519,-0.19096 z m 49.796287,-1.075 c 0.18191,-0.0734 0.33073,-0.29537 0.33073,-0.49328 0,-0.1979 0.24913,-0.53431 0.55362,-0.74759 0.5193,-0.36373 0.5234,-0.39556 0.0661,-0.51347 -0.39694,-0.10237 -0.37692,-0.13141 0.10784,-0.15641 0.32742,-0.0169 0.59531,0.0352 0.59531,0.11574 0,0.30603 -1.46738,1.96926 -1.71979,1.94934 -0.14552,-0.0115 -0.11576,-0.0809 0.0661,-0.15433 z m -49.410935,-0.71842 c 0,-0.0549 0.181319,-0.25037 0.402931,-0.43429 0.336908,-0.27961 0.375624,-0.26324 0.236276,0.0999 -0.142317,0.37088 -0.639207,0.63083 -0.639207,0.3344 z m 6.68073,-0.36282 c 3.019557,-0.0424 7.960651,-0.0424 10.980205,0 3.01956,0.0425 0.54901,0.0772 -5.490101,0.0772 -6.039115,0 -8.509662,-0.0347 -5.490104,-0.0772 z m 17.334945,-0.2582 c 0.47555,-0.0589 1.18993,-0.0577 1.5875,0.003 0.39758,0.0604 0.008,0.10855 -0.86463,0.10706 -0.87313,-0.001 -1.19842,-0.0509 -0.72287,-0.10976 z M 86.431677,104.6087 c 0.06749,-0.10914 10.920611,-0.17077 24.118043,-0.13696 13.19742,0.0338 20.95922,0.093 17.24844,0.13163 -17.37176,0.18064 -41.476814,0.18374 -41.366483,0.005 z"
           id="path1641" />
        <path
           style="fill:#165478;stroke-width:0.264583"
           d="m 53.044614,113.41482 c 1.590951,-1.5959 2.932238,-2.86204 2.980637,-2.81364 0.0484,0.0484 -1.059475,1.22619 -2.461944,2.61731 -1.404646,1.39328 -2.471018,2.65702 -2.374221,2.81364 0.105757,0.17112 -0.06572,0.28432 -0.430694,0.28432 -0.493186,0 -0.06631,-0.54179 2.286222,-2.90163 z m 70.784796,2.79937 c 0,-0.0562 0.3509,-0.15376 0.77978,-0.21671 0.42888,-0.0629 0.71951,-0.0169 0.64584,0.10226 -0.1311,0.21214 -1.42562,0.31606 -1.42562,0.11445 z m 2.51354,-1.48524 c 0.26339,-0.29104 0.53843,-0.52916 0.61119,-0.52916 0.0728,0 -0.0832,0.23812 -0.3466,0.52916 -0.26339,0.29104 -0.53842,0.52917 -0.61118,0.52917 -0.0728,0 0.0832,-0.23813 0.34659,-0.52917 z m 2.77813,-2.74573 c 0,-0.0549 0.20836,-0.2633 0.46302,-0.46302 0.41965,-0.3291 0.429,-0.31975 0.0999,0.0999 -0.34565,0.44073 -0.56292,0.58088 -0.56292,0.36312 z m -37.686116,-0.88088 c -0.143584,-0.37708 -0.113194,-0.40747 0.148113,-0.14811 0.180822,0.17948 0.262115,0.39297 0.180653,0.47443 -0.08146,0.0815 -0.229407,-0.0654 -0.328766,-0.32632 z m -31.778159,-0.0956 c -0.09607,-0.15544 -0.335157,-0.22104 -0.531307,-0.14577 -0.2329,0.0894 -0.304071,-1.3e-4 -0.20513,-0.25797 0.130926,-0.34118 0.218952,-0.33378 0.647983,0.0545 0.492436,0.44564 0.60437,0.63187 0.3798,0.63187 -0.06417,0 -0.195278,-0.12718 -0.291346,-0.28262 z m 8.345523,0.17442 c 0,-0.0504 0.178594,-0.23981 0.396875,-0.42097 0.228757,-0.18985 0.396875,-0.21556 0.396875,-0.0607 0,0.14777 -0.178594,0.3372 -0.396875,0.42097 -0.218281,0.0838 -0.396875,0.11108 -0.396875,0.0607 z m 5.468056,-0.0682 c -0.09701,-0.097 -0.176389,-0.38475 -0.176389,-0.63941 0,-0.25466 -0.148828,-0.52307 -0.330729,-0.59647 -0.197575,-0.0797 -0.144315,-0.14186 0.132291,-0.15434 0.319006,-0.0144 0.463021,0.17799 0.463021,0.61852 0,0.35167 0.148828,0.69946 0.330729,0.77286 0.184634,0.0745 0.204113,0.14268 0.0441,0.15434 -0.157649,0.0115 -0.366008,-0.0585 -0.463021,-0.1555 z m 13.317361,0.0393 c 0,-0.21416 0.758256,-0.31298 1.04443,-0.13612 0.214188,0.13238 0.08628,0.20703 -0.354725,0.20703 -0.379338,0 -0.689705,-0.0319 -0.689705,-0.0709 z m 14.421665,-0.12449 c -0.0927,-0.14999 0.0135,-0.19434 0.24897,-0.10399 0.45837,0.17589 0.54223,0.36554 0.16165,0.36554 -0.13693,0 -0.32171,-0.1177 -0.41062,-0.26155 z m 5.42209,-0.003 c 0.21828,-0.14107 0.51593,-0.25648 0.66145,-0.25648 0.14553,0 0.086,0.11541 -0.13229,0.25648 -0.21828,0.14106 -0.51593,0.25648 -0.66146,0.25648 -0.14552,0 -0.086,-0.11542 0.1323,-0.25648 z m 4.4483,0.0838 c 0.191,-0.0764 0.4192,-0.067 0.50712,0.0209 0.0879,0.0879 -0.0684,0.15045 -0.34726,0.13896 -0.30823,-0.0127 -0.37092,-0.0754 -0.15986,-0.15985 z m 7.60725,-0.53545 c -0.14359,-0.37709 -0.1132,-0.40748 0.14811,-0.14812 0.18082,0.17948 0.26212,0.39297 0.18065,0.47443 -0.0815,0.0815 -0.2294,-0.0654 -0.32876,-0.32631 z m -52.669097,-0.0776 c -0.178382,-0.28863 0.04804,-0.79375 0.355793,-0.79375 0.10575,0 0.192272,0.23812 0.192272,0.52917 0,0.56504 -0.279099,0.69977 -0.548065,0.26458 z m 5.876462,-0.26458 c -0.07611,-0.29105 -0.03046,-0.52917 0.101433,-0.52917 0.131898,0 0.239813,0.23812 0.239813,0.52917 0,0.29104 -0.04565,0.52916 -0.101433,0.52916 -0.05579,0 -0.163703,-0.23812 -0.239813,-0.52916 z m 4.486386,0.35277 c -0.26688,-0.26688 -0.211164,-0.88194 0.07989,-0.88194 0.140952,0 0.18025,0.19812 0.08733,0.44028 -0.122675,0.31968 -0.07297,0.38095 0.181475,0.2237 0.233161,-0.1441 0.28725,-0.11436 0.161639,0.0889 -0.219043,0.35442 -0.271677,0.36773 -0.510334,0.12907 z m 2.998611,-0.33716 c 0,-0.29963 0.119062,-0.54478 0.264583,-0.54478 0.145521,0 0.264583,0.17157 0.264583,0.38126 0,0.20969 -0.119062,0.45484 -0.264583,0.54478 -0.145521,0.0899 -0.264583,-0.0816 -0.264583,-0.38126 z m 12.77171,-0.002 c 0.02275,-0.30214 0.164764,-0.50823 0.315566,-0.45796 0.376052,0.12535 0.346347,0.77289 -0.04138,0.90214 -0.184163,0.0614 -0.298333,-0.12357 -0.274182,-0.44418 z m 9.717878,-0.0138 c 0,-0.34102 0.13398,-0.52861 0.33072,-0.46303 0.18191,0.0606 0.33073,0.269 0.33073,0.46303 0,0.19402 -0.14882,0.40238 -0.33073,0.46302 -0.19674,0.0656 -0.33072,-0.12201 -0.33072,-0.46302 z m 4.25422,0.11024 c 0.0127,-0.30823 0.0754,-0.37092 0.15985,-0.15985 0.0764,0.19099 0.067,0.4192 -0.0209,0.50711 -0.0879,0.0879 -0.15045,-0.0684 -0.13896,-0.34726 z m 14.71644,-0.0205 c 0.0741,-0.19319 0.24137,-0.28538 0.37164,-0.20487 0.36233,0.22393 0.28182,0.55613 -0.13479,0.55613 -0.2044,0 -0.31099,-0.15807 -0.23685,-0.35126 z m -60.151015,-0.0288 c 0.09703,-0.15699 -0.03341,-0.34017 -0.289849,-0.40706 -0.416843,-0.10874 -0.418841,-0.12488 -0.01885,-0.15232 0.560839,-0.0385 0.855895,0.39761 0.442071,0.65337 -0.185715,0.11477 -0.239128,0.0771 -0.133368,-0.094 z m 9.43035,-0.0349 c 0,-0.27475 0.503293,-0.6725 0.652375,-0.51556 0.0484,0.051 -0.07858,0.24616 -0.282186,0.4338 -0.203604,0.18764 -0.370189,0.22443 -0.370189,0.0818 z m 15.366722,-0.18038 c 0.0127,-0.30823 0.07539,-0.37092 0.159851,-0.15986 0.07643,0.191 0.06703,0.4192 -0.02088,0.50712 -0.08792,0.0879 -0.150452,-0.0683 -0.138964,-0.34726 z m 4.212445,0.18038 c 0,-0.27475 0.503293,-0.6725 0.652375,-0.51556 0.0484,0.051 -0.07858,0.24616 -0.282186,0.4338 -0.203605,0.18764 -0.370189,0.22443 -0.370189,0.0818 z m 24.097968,-0.18038 c 0.0127,-0.30823 0.0754,-0.37092 0.15986,-0.15986 0.0764,0.191 0.067,0.4192 -0.0209,0.50712 -0.0879,0.0879 -0.15045,-0.0683 -0.13896,-0.34726 z m -49.762552,-0.11025 c 0,-0.14552 0.119062,-0.26458 0.264583,-0.26458 0.145521,0 0.264583,0.11906 0.264583,0.26458 0,0.14552 -0.119062,0.26459 -0.264583,0.26459 -0.145521,0 -0.264583,-0.11907 -0.264583,-0.26459 z m 22.900627,0.0259 c -0.491556,-0.19237 -0.488545,-0.20846 0.06615,-0.35351 0.395031,-0.1033 0.581144,-0.0328 0.581144,0.22013 0,0.20466 -0.02976,0.36374 -0.06615,0.35351 -0.03638,-0.0102 -0.297894,-0.10929 -0.581144,-0.22013 z m 19.961875,-0.0259 c 0,-0.14552 0.11906,-0.26458 0.26458,-0.26458 0.14552,0 0.26459,0.11906 0.26459,0.26458 0,0.14552 -0.11907,0.26459 -0.26459,0.26459 -0.14552,0 -0.26458,-0.11907 -0.26458,-0.26459 z m 12.7,0 c 0,-0.14552 0.12609,-0.26458 0.2802,-0.26458 0.15411,0 0.20661,0.11906 0.11667,0.26458 -0.0899,0.14552 -0.21602,0.26459 -0.28019,0.26459 -0.0642,0 -0.11668,-0.11907 -0.11668,-0.26459 z m -61.383336,-0.41249 c 0,-0.22687 0.121005,-0.3377 0.268899,-0.2463 0.147895,0.0914 0.2004,0.27703 0.116677,0.41249 -0.226811,0.36699 -0.385576,0.29856 -0.385576,-0.16619 z m 9.877778,0.0273 c 0,-0.21188 0.101161,-0.32272 0.224802,-0.24631 0.123641,0.0764 0.156302,0.24978 0.07258,0.38524 -0.213949,0.34618 -0.297382,0.3072 -0.297382,-0.13893 z m 20.499697,0.20449 c 0.190995,-0.0764 0.419198,-0.067 0.507119,0.0209 0.08792,0.0879 -0.06835,0.15045 -0.347265,0.13896 -0.308227,-0.0127 -0.37092,-0.0754 -0.159854,-0.15985 z m 9.508464,0.006 c 0.181901,-0.0734 0.479557,-0.0734 0.661458,0 0.181901,0.0734 0.03307,0.13345 -0.330729,0.13345 -0.363802,0 -0.51263,-0.0601 -0.330729,-0.13345 z m 5.808217,-0.17755 c -0.0744,-0.19402 0.0205,-0.35277 0.21105,-0.35277 0.19054,0 0.28551,0.15875 0.21105,0.35277 -0.0744,0.19403 -0.16942,0.35278 -0.21105,0.35278 -0.0416,0 -0.13659,-0.15875 -0.21105,-0.35278 z m 5.30428,0.17755 c 0.1819,-0.0734 0.47956,-0.0734 0.66146,0 0.1819,0.0734 0.0331,0.13346 -0.33073,0.13346 -0.3638,0 -0.51263,-0.0601 -0.33073,-0.13346 z m 3.50573,-0.10497 c 0,-0.15411 0.11907,-0.20661 0.26459,-0.11667 0.14552,0.0899 0.26458,0.21602 0.26458,0.2802 0,0.0642 -0.11906,0.11667 -0.26458,0.11667 -0.14552,0 -0.26459,-0.12609 -0.26459,-0.2802 z m 8.77976,-0.0417 c -0.1722,-0.1722 -0.31309,-0.41684 -0.31309,-0.54365 0,-0.12681 0.19277,-0.0378 0.42837,0.1978 0.23561,0.23561 0.3765,0.48025 0.31309,0.54366 -0.0634,0.0634 -0.25617,-0.0256 -0.42837,-0.19781 z m 2.2666,0.14668 c 0.1819,-0.0734 0.47955,-0.0734 0.66146,0 0.1819,0.0734 0.0331,0.13346 -0.33073,0.13346 -0.36381,0 -0.51263,-0.0601 -0.33073,-0.13346 z m -65.952144,-1.14283 c 0.565781,-0.57941 1.087675,-0.99449 1.159765,-0.9224 0.134821,0.13482 -1.761998,1.97588 -2.035725,1.97588 -0.084,0 0.31018,-0.47407 0.87596,-1.05348 z m 43.264124,0.7889 c 0,-0.14553 0.12609,-0.26459 0.28019,-0.26459 0.15411,0 0.20662,0.11906 0.11668,0.26459 -0.0899,0.14552 -0.21603,0.26458 -0.2802,0.26458 -0.0642,0 -0.11667,-0.11906 -0.11667,-0.26458 z m 31.22083,-0.62907 c 0,-0.0549 0.20836,-0.2633 0.46302,-0.46302 0.41965,-0.3291 0.429,-0.31975 0.0999,0.0999 -0.34565,0.44073 -0.56292,0.58089 -0.56292,0.36312 z m -48.418752,-1.88448 c 0.341776,-0.3638 0.68094,-0.66145 0.7537,-0.66145 0.07276,0 -0.147341,0.29765 -0.489116,0.66145 -0.341776,0.36381 -0.68094,0.66146 -0.7537,0.66146 -0.07276,0 0.147341,-0.29765 0.489116,-0.66146 z m 51.859292,-1.5875 c 0.36328,-0.43656 0.69027,-0.84336 0.72665,-0.90399 0.0364,-0.0606 0.12443,-0.0519 0.19568,0.0193 0.0712,0.0712 -0.25575,0.47804 -0.72665,0.90399 l -0.85617,0.77446 z"
           id="path1639" />
      </g>
      <rect
         style="fill:#005693;fill-opacity:1;stroke-width:0.264583"
         id="rect1870"
         width="69.192833"
         height="1.94063"
         x="58.715687"
         y="87.342468" />
    </g>
  </g>
</svg>
