<?xml version="1.0" encoding="UTF-8" standalone="no"?>
<!-- Created with Inkscape (http://www.inkscape.org/) -->

<svg
   width="8.7302494mm"
   height="74.083336mm"
   viewBox="0 0 8.7302494 74.083334"
   version="1.1"
   id="svg5"
   inkscape:version="1.1.2 (0a00cf5339, 2022-02-04)"
   sodipodi:docname="sidewitharrow.svg"
   xmlns:inkscape="http://www.inkscape.org/namespaces/inkscape"
   xmlns:sodipodi="http://sodipodi.sourceforge.net/DTD/sodipodi-0.dtd"
   xmlns="http://www.w3.org/2000/svg"
   xmlns:svg="http://www.w3.org/2000/svg">
  <sodipodi:namedview
     id="namedview7"
     pagecolor="#505050"
     bordercolor="#eeeeee"
     borderopacity="1"
     inkscape:pageshadow="0"
     inkscape:pageopacity="0"
     inkscape:pagecheckerboard="0"
     inkscape:document-units="mm"
     showgrid="false"
     inkscape:zoom="1.6534231"
     inkscape:cx="-35.683546"
     inkscape:cy="130.63807"
     inkscape:window-width="1366"
     inkscape:window-height="703"
     inkscape:window-x="0"
     inkscape:window-y="0"
     inkscape:window-maximized="1"
     inkscape:current-layer="layer1" />
  <defs
     id="defs2" />
  <g
     inkscape:label="Layer 1"
     inkscape:groupmode="layer"
     id="layer1"
     transform="translate(-104.13363,-85.238562)">
    <g
       id="g3436"
       transform="translate(24.480797,1.4789492)">
      <path
         style="fill:#f3a19e;stroke-width:0.264583"
         d="m 83.551437,149.10169 1.124479,-1.20064 V 130.9272 c 0,-9.33562 0.0893,-17.02907 0.198437,-17.09655 0.109141,-0.0675 0.166982,7.58189 0.128536,16.99861 l -0.0699,17.1213 -1.253015,1.17588 -1.253014,1.17588 z m 3.052237,-37.9577 c 0.002,-0.7276 0.05337,-0.99386 0.114185,-0.59167 0.06082,0.40218 0.05919,0.99749 -0.0036,1.32291 -0.0628,0.32542 -0.112561,-0.004 -0.110574,-0.73124 z"
         id="path3454" />
      <path
         style="fill:#92b9cb;stroke-width:0.264583"
         d="m 82.3913,152.94816 c 6.88e-4,-1.45521 0.04512,-2.01677 0.09874,-1.2479 0.05362,0.76886 0.05305,1.95948 -0.0012,2.64583 -0.05431,0.68634 -0.09818,0.0573 -0.09749,-1.39793 z m 1.160137,-54.298694 c 0.472943,-0.05869 1.246849,-0.05869 1.719791,0 0.472943,0.05869 0.08599,0.106712 -0.859895,0.106712 -0.945886,0 -1.332839,-0.04802 -0.859896,-0.106712 z m 0.330729,-10.524227 c 2.397786,-2.401094 4.419141,-4.365626 4.491902,-4.365626 0.07276,0 -1.829533,1.964532 -4.227319,4.365626 -2.397785,2.401094 -4.419141,4.365625 -4.491901,4.365625 -0.07276,0 1.829532,-1.964531 4.227318,-4.365625 z"
         id="path3452" />
      <path
         style="fill:#7ba5c3;stroke-width:0.264583"
         d="m 79.713928,125.10076 0.06509,-32.742188 0.06824,32.663958 0.06824,32.66396 1.255724,-1.17854 1.255724,-1.17854 -1.179568,1.25677 c -0.648762,0.69122 -1.27384,1.25677 -1.389062,1.25677 -0.115222,0 -0.180202,-14.73399 -0.1444,-32.74219 z m 1.779753,-25.07697 -0.628644,-0.669163 0.907217,-0.852194 0.907216,-0.852194 -0.769363,0.858114 -0.769363,0.858115 0.623082,0.663242 c 0.342695,0.36478 0.56355,0.66324 0.49079,0.66324 -0.07276,0 -0.415181,-0.30112 -0.760935,-0.66916 z"
         id="path3450" />
      <path
         style="fill:#f62526;stroke-width:0.264583"
         d="m 82.559249,132.20084 v -17.81199 l 0.820222,-0.93418 c 0.451121,-0.5138 1.195262,-1.23465 1.653645,-1.60189 0.675404,-0.5411 0.63276,-0.45472 -0.224908,0.45561 -0.582084,0.61782 -1.266693,1.31964 -1.521354,1.55961 -0.431931,0.40701 -0.463021,1.61439 -0.463021,17.9815 v 17.5452 l 0.79375,-0.90404 0.79375,-0.90403 v -17.09684 c 0,-15.30845 0.04315,-17.09684 0.41249,-17.09684 0.226869,0 0.350607,-0.10013 0.274972,-0.22251 -0.07563,-0.12238 0.214995,-0.48313 0.645844,-0.80167 1.072863,-0.7932 0.986826,-0.33517 -0.142681,0.75959 l -0.926042,0.89756 v 16.96003 16.96002 l -1.058333,1.03344 -1.058334,1.03343 z m 0.79375,14.6619 c 0,-0.21828 0.115326,-0.39687 0.25628,-0.39687 0.140954,0 0.187746,0.17859 0.103984,0.39687 -0.08376,0.21828 -0.199088,0.39688 -0.256279,0.39688 -0.05719,0 -0.103985,-0.1786 -0.103985,-0.39688 z m -0.14094,-15.875 c -3.9e-5,-8.14917 0.03352,-11.52114 0.07459,-7.49326 0.04106,4.02787 0.04109,10.69537 7.1e-5,14.81666 -0.04102,4.1213 -0.07462,0.82577 -0.07466,-7.3234 z m 0.14094,-15.74271 c 0,-0.14552 0.119063,-0.26458 0.264584,-0.26458 0.145521,0 0.264583,0.11906 0.264583,0.26458 0,0.14552 -0.119062,0.26458 -0.264583,0.26458 -0.145521,0 -0.264584,-0.11906 -0.264584,-0.26458 z m 2.575278,-4.53075 c 0.179476,-0.18082 0.39297,-0.26211 0.474432,-0.18065 0.08146,0.0815 -0.06538,0.22941 -0.32632,0.32877 -0.377083,0.14358 -0.407474,0.11319 -0.148112,-0.14812 z"
         id="path3448" />
      <path
         style="fill:#fc1e24;stroke-width:0.264583"
         d="m 83.352999,148.21689 c 0,-0.21828 0.119063,-0.47046 0.264584,-0.5604 0.145521,-0.0899 0.264583,0.0151 0.264583,0.23336 0,0.21828 -0.119062,0.47045 -0.264583,0.56039 -0.145521,0.0899 -0.264584,-0.0151 -0.264584,-0.23335 z m -0.37213,-1.79146 c 0.127711,-0.34156 0.262693,-7.34805 0.299959,-15.56998 0.03727,-8.22193 0.06875,-15.03826 0.06996,-15.1474 0.0012,-0.10914 0.0915,-0.19844 0.200645,-0.19844 0.10914,0 0.198437,6.95511 0.198437,15.45579 0,14.87529 -0.0188,15.46754 -0.500603,15.76843 -0.453738,0.28336 -0.478865,0.25449 -0.268402,-0.3084 z m 1.289864,-15.3054 c 0,-8.51297 0.03343,-11.99555 0.0743,-7.73906 0.04086,4.25648 0.04086,11.22164 0,15.47812 -0.04086,4.25649 -0.0743,0.77391 -0.0743,-7.73906 z M 83.352999,114.4669 c 0,-0.28246 0.119063,-0.58714 0.264584,-0.67708 0.15006,-0.0927 0.264583,0.12955 0.264583,0.51355 0,0.37239 -0.119062,0.67708 -0.264583,0.67708 -0.145521,0 -0.264584,-0.2311 -0.264584,-0.51355 z m 1.058334,-1.33023 c 0,-0.14095 0.178593,-0.18775 0.396875,-0.10399 0.218281,0.0838 0.396875,0.19909 0.396875,0.25628 0,0.0572 -0.178594,0.10399 -0.396875,0.10399 -0.218282,0 -0.396875,-0.11533 -0.396875,-0.25628 z"
         id="path3446" />
      <path
         style="fill:#fa241b;stroke-width:0.264583"
         d="m 82.823833,148.08459 c 0,-0.58208 0.119062,-1.13191 0.264583,-1.22185 0.145521,-0.0899 0.264583,-0.0176 0.264583,0.16078 0,0.17836 0.05908,0.26521 0.131287,0.193 0.07221,-0.0722 0.144791,-7.71101 0.161295,-16.97513 l 0.03001,-16.84385 1.092755,-1.06063 c 1.135518,-1.10213 1.365329,-1.22002 1.60917,-0.82548 0.15683,0.25375 -1.553119,1.67722 -1.762843,1.4675 -0.338015,-0.33802 -0.484613,5.99818 -0.457053,19.75461 0.01664,8.30627 -0.03853,15.1711 -0.122598,15.25516 -0.08407,0.0841 -0.152855,0.007 -0.152855,-0.17143 0,-0.17837 -0.119062,-0.25072 -0.264583,-0.16078 -0.145521,0.0899 -0.264584,0.38759 -0.264584,0.66146 0,0.27386 -0.119062,0.57152 -0.264583,0.66146 -0.159545,0.0986 -0.264583,-0.25663 -0.264584,-0.89482 z m 0.05182,-17.80884 c -0.0285,-8.8318 0.03748,-16.11308 0.146616,-16.18061 0.179826,-0.11127 0.163924,26.42253 -0.01829,30.51864 -0.04208,0.94589 -0.09982,-5.50623 -0.128326,-14.33803 z"
         id="path3444" />
      <path
         style="fill:#9b3752;stroke-width:0.264583"
         d="m 82.358945,132.2061 -0.06428,-18.09622 1.945968,-1.94596 c 1.070282,-1.07029 2.024618,-1.94597 2.120746,-1.94597 0.09613,0 -0.719207,0.91748 -1.811857,2.03885 l -1.986635,2.03885 -0.06983,18.00334 -0.06983,18.00333 z"
         id="path3442" />
      <path
         style="fill:#015692;stroke-width:0.264583"
         d="M 79.913416,125.1514 V 92.59992 l 4.009669,-4.023278 c 2.205317,-2.212803 4.080551,-4.023281 4.167187,-4.023285 0.08664,-3e-6 0.132568,5.31295 0.102073,11.806564 l -0.05545,11.806569 -3.077937,2.95216 -3.077938,2.95217 0.07961,20.70261 0.07961,20.70262 -1.113414,1.11341 -1.113414,1.11342 z m 2.99378,-24.74866 c 0.127009,-0.485683 0.320351,-0.547506 1.552213,-0.496336 2.035868,0.08457 2.115075,0.06095 2.020846,-0.602519 -0.07538,-0.530768 -0.256443,-0.604123 -1.669989,-0.676574 -1.037868,-0.0532 -1.659229,-0.213113 -1.799084,-0.463021 -0.301119,-0.538068 -0.545574,-0.480543 -1.341895,0.315779 -0.868243,0.868243 -0.866604,0.976363 0.02736,1.805301 0.879845,0.81583 1.024233,0.82983 1.210546,0.11737 z"
         id="path3440" />
      <path
         style="fill:#2a4678;stroke-width:0.264583"
         d="m 82.090123,132.31066 -0.06507,-18.25625 3.177513,-3.07774 c 1.747633,-1.69275 3.178862,-3.00244 3.18051,-2.91041 0.0016,0.092 -1.337804,1.43642 -2.976562,2.98755 l -2.979559,2.82024 -0.135884,18.34643 -0.135884,18.34643 z m 6.146329,-36.115629 c 0,-6.039115 0.03473,-8.509662 0.07718,-5.490105 0.04245,3.019558 0.04245,7.960652 0,10.980214 -0.04245,3.01955 -0.07718,0.54901 -0.07718,-5.490109 z m -1.93126,3.175 c 0,-0.363802 0.06005,-0.51263 0.133452,-0.330729 0.0734,0.181901 0.0734,0.479557 0,0.661458 -0.0734,0.181901 -0.133452,0.03307 -0.133452,-0.330729 z m -5.598026,-7.805209 c 0.493655,-0.509323 0.957086,-0.926042 1.029847,-0.926042 0.07276,0 -0.271608,0.416719 -0.765263,0.926042 -0.493656,0.509323 -0.957087,0.926042 -1.029847,0.926042 -0.07276,0 0.271608,-0.416719 0.765263,-0.926042 z m 2.248958,-2.248958 c 0.56839,-0.582084 1.092967,-1.058334 1.165727,-1.058334 0.07276,0 -0.332754,0.47625 -0.901143,1.058334 -0.56839,0.582083 -1.092966,1.058333 -1.165727,1.058333 -0.07276,0 0.332754,-0.47625 0.901143,-1.058333 z m 2.645834,-2.645834 c 0.568389,-0.582083 1.092966,-1.058333 1.165726,-1.058333 0.07276,0 -0.332754,0.47625 -0.901143,1.058333 -0.568389,0.582084 -1.092966,1.058334 -1.165727,1.058334 -0.07276,0 0.332754,-0.47625 0.901144,-1.058334 z m 1.964349,-1.939476 c 0.674038,-0.742262 0.819113,-0.833746 0.805461,-0.50792 -0.0046,0.109141 -0.331995,0.427002 -0.727604,0.706358 l -0.71929,0.50792 z"
         id="path3438" />
    </g>
  </g>
</svg>
